<svg width="263" height="61" viewBox="0 0 263 61" fill="none" xmlns="http://www.w3.org/2000/svg">
<g filter="url(#filter0_f)">
<path d="M32.122 41.908L32.4693 42.8457L33.122 42.604V41.908H32.122ZM32.122 28.246H33.122V27.246H32.122V28.246ZM24.268 25.738L25.2274 26.0202L25.2332 26.0005L25.2381 25.9805L24.268 25.738ZM24.4 25.21V24.21H23.6192L23.4299 24.9675L24.4 25.21ZM40.108 25.21L40.9401 24.6553L40.6432 24.21H40.108V25.21ZM39.91 27.586L40.038 28.5778L40.4465 28.5251L40.6994 28.1999L39.91 27.586ZM35.818 28.114L35.69 27.1222L34.818 27.2347V28.114H35.818ZM35.818 42.172L36.7371 42.5659L36.818 42.3773V42.172H35.818ZM35.29 43.162L34.442 42.632L34.442 42.632L35.29 43.162ZM34.564 44.152L34.9815 45.0607L35.1806 44.9692L35.3233 44.8028L34.564 44.152ZM28.624 46L28.8128 46.982L28.82 46.9806L28.8272 46.9791L28.624 46ZM10.936 44.02L10.4306 44.8829L10.4399 44.8882L10.936 44.02ZM3.808 36.43L2.91595 36.882L2.91843 36.8868L3.808 36.43ZM3.808 13.132L2.92073 12.6706L2.91596 12.68L3.808 13.132ZM10.936 5.476L10.4306 4.6131L10.4252 4.61631L10.936 5.476ZM27.634 3.43L27.8421 2.45189L27.8421 2.45189L27.634 3.43ZM33.376 5.278L34.1353 4.6272L33.99 4.45769L33.7864 4.36608L33.376 5.278ZM34.102 6.268L34.95 5.738L34.95 5.738L34.102 6.268ZM34.63 7.258L35.6299 7.24174L35.6267 7.04497L35.5491 6.86409L34.63 7.258ZM34.762 15.376L35.3167 16.2081L35.7707 15.9054L35.7619 15.3597L34.762 15.376ZM32.386 15.178L31.4125 15.4066L31.4932 15.7505L31.7721 15.9674L32.386 15.178ZM30.604 7.588L31.5775 7.35943L31.4586 6.8528L30.9754 6.65952L30.604 7.588ZM26.182 6.268L25.992 7.24979L25.9977 7.25087L26.182 6.268ZM12.982 8.182L13.5053 9.03417L13.5053 9.03417L12.982 8.182ZM7.174 14.782L6.27138 14.3515L6.26854 14.3576L7.174 14.782ZM7.24 34.78L6.33995 35.216L6.34557 35.2272L7.24 34.78ZM13.18 41.314L12.6633 42.1703L12.6743 42.1767L13.18 41.314ZM27.436 43.096L27.5967 44.083L27.6058 44.0815L27.6149 44.0799L27.436 43.096ZM33.122 41.908V28.246H31.122V41.908H33.122ZM32.122 27.246H24.994V29.246H32.122V27.246ZM24.994 27.246C24.8877 27.246 24.8317 27.234 24.812 27.2282C24.7954 27.2234 24.8213 27.2281 24.8605 27.2624C24.8794 27.279 24.8968 27.2985 24.9112 27.3195C24.9255 27.3404 24.934 27.3584 24.9385 27.3703C24.947 27.3926 24.938 27.3832 24.938 27.322H22.938C22.938 27.8214 23.0869 28.368 23.5435 28.7676C23.9746 29.1448 24.5182 29.246 24.994 29.246V27.246ZM24.938 27.322C24.938 27.1753 25.0055 26.7745 25.2274 26.0202L23.3086 25.4558C23.0905 26.1975 22.938 26.8527 22.938 27.322H24.938ZM25.2381 25.9805L25.3701 25.4525L23.4299 24.9675L23.2979 25.4955L25.2381 25.9805ZM24.4 26.21H40.108V24.21H24.4V26.21ZM39.276 25.7647C39.3076 25.8122 39.372 25.9496 39.372 26.266H41.372C41.372 25.7024 41.2604 25.1358 40.9401 24.6553L39.276 25.7647ZM39.372 26.266C39.372 26.519 39.2975 26.7447 39.1206 26.9721L40.6994 28.1999C41.1385 27.6353 41.372 26.981 41.372 26.266H39.372ZM39.782 26.5942L35.69 27.1222L35.946 29.1058L40.038 28.5778L39.782 26.5942ZM34.818 28.114V42.172H36.818V28.114H34.818ZM34.8989 41.7781C34.7911 42.0294 34.641 42.3137 34.442 42.632L36.138 43.692C36.379 43.3063 36.5809 42.9306 36.7371 42.5659L34.8989 41.7781ZM34.442 42.632C34.2479 42.9426 34.0354 43.2321 33.8047 43.5012L35.3233 44.8028C35.6206 44.4559 35.8921 44.0854 36.138 43.692L34.442 42.632ZM34.1465 43.2433C32.6052 43.9515 30.7015 44.5475 28.4208 45.0209L28.8272 46.9791C31.2105 46.4845 33.2668 45.8485 34.9815 45.0607L34.1465 43.2433ZM28.4352 45.018C26.2057 45.4467 24.025 45.66 21.892 45.66V47.66C24.159 47.66 26.4663 47.4333 28.8128 46.982L28.4352 45.018ZM21.892 45.66C17.8088 45.66 14.3346 44.8103 11.4321 43.1518L10.4399 44.8882C13.6974 46.7497 17.5272 47.66 21.892 47.66V45.66ZM11.4414 43.1571C8.52981 41.4518 6.28505 39.0646 4.69757 35.9732L2.91843 36.8868C4.67495 40.3074 7.18219 42.9802 10.4306 44.8829L11.4414 43.1571ZM4.70004 35.978C3.11258 32.8449 2.3 29.112 2.3 24.748H0.3C0.3 29.36 1.15942 33.4151 2.91596 36.882L4.70004 35.978ZM2.3 24.748C2.3 20.4297 3.11192 16.7184 4.70004 13.584L2.91596 12.68C1.16008 16.1456 0.3 20.1783 0.3 24.748H2.3ZM4.69522 13.5934C6.33008 10.4494 8.57962 8.03938 11.4468 6.33568L10.4252 4.61631C7.22038 6.52061 4.71792 9.21461 2.92078 12.6706L4.69522 13.5934ZM11.4414 6.33888C14.3436 4.639 17.793 3.77 21.826 3.77V1.77C17.499 1.77 13.6884 2.70499 10.4306 4.61312L11.4414 6.33888ZM21.826 3.77C23.5493 3.77 25.4149 3.98024 27.4259 4.4081L27.8421 2.45189C25.7171 1.99975 23.7107 1.77 21.826 1.77V3.77ZM27.4259 4.4081C29.4309 4.83469 31.2763 5.42973 32.9656 6.18992L33.7864 4.36608C31.9557 3.54226 29.9731 2.9053 27.8421 2.45189L27.4259 4.4081ZM32.6167 5.92879C32.8474 6.19793 33.0599 6.48744 33.254 6.798L34.95 5.738C34.7041 5.34456 34.4326 4.97406 34.1353 4.6272L32.6167 5.92879ZM33.254 6.79799C33.453 7.11633 33.6031 7.40059 33.7109 7.65191L35.5491 6.86409C35.3929 6.49941 35.191 6.12366 34.95 5.738L33.254 6.79799ZM33.6301 7.27426L33.7621 15.3923L35.7619 15.3597L35.6299 7.24174L33.6301 7.27426ZM34.2073 14.5439C34.1598 14.5756 34.0224 14.64 33.706 14.64V16.64C34.2696 16.64 34.8362 16.5284 35.3167 16.2081L34.2073 14.5439ZM33.706 14.64C33.453 14.64 33.2273 14.5655 32.9999 14.3886L31.7721 15.9674C32.3367 16.4065 32.991 16.64 33.706 16.64V14.64ZM33.3595 14.9494L31.5775 7.35943L29.6305 7.81657L31.4125 15.4066L33.3595 14.9494ZM30.9754 6.65952C29.3842 6.02304 27.8474 5.56283 26.3663 5.28512L25.9977 7.25087C27.3326 7.50117 28.7438 7.92096 30.2326 8.51648L30.9754 6.65952ZM26.372 5.28622C24.9391 5.00888 23.423 4.872 21.826 4.872V6.872C23.309 6.872 24.6969 6.99912 25.992 7.24978L26.372 5.28622ZM21.826 4.872C18.2817 4.872 15.1468 5.67928 12.4587 7.32983L13.5053 9.03417C15.8332 7.60472 18.5943 6.872 21.826 6.872V4.872ZM12.4587 7.32983C9.77355 8.97863 7.71184 11.3312 6.2714 14.3515L8.0766 15.2125C9.36416 12.5128 11.1745 10.4654 13.5053 9.03417L12.4587 7.32983ZM6.26854 14.3576C4.87296 17.3348 4.194 20.8303 4.194 24.814H6.194C6.194 21.0537 6.83504 17.8612 8.07946 15.2064L6.26854 14.3576ZM4.194 24.814C4.194 28.7599 4.89714 32.2371 6.34002 35.2159L8.13998 34.3441C6.85486 31.6909 6.194 28.5241 6.194 24.814H4.194ZM6.34557 35.2272C7.83325 38.2026 9.93994 40.5268 12.6633 42.1702L13.6967 40.4578C11.3161 39.0212 9.46275 36.9894 8.13443 34.3328L6.34557 35.2272ZM12.6743 42.1767C15.4046 43.7773 18.5996 44.558 22.222 44.558V42.558C18.8924 42.558 16.0594 41.8427 13.6857 40.4513L12.6743 42.1767ZM22.222 44.558C23.8696 44.558 25.6622 44.3979 27.5967 44.083L27.2753 42.109C25.4258 42.4101 23.7424 42.558 22.222 42.558V44.558ZM27.6149 44.0799C29.5806 43.7225 31.2054 43.3139 32.4693 42.8457L31.7747 40.9703C30.6626 41.3821 29.1634 41.7655 27.2571 42.1121L27.6149 44.0799ZM82.6775 45.076L82.866 46.0581L83.305 45.9738L83.535 45.5905L82.6775 45.076ZM76.1435 46.33L75.6756 47.2138L75.9865 47.3784L76.332 47.3121L76.1435 46.33ZM74.2955 44.878L73.2979 44.8087L73.2697 45.2139L73.5321 45.5239L74.2955 44.878ZM74.6255 40.126L75.6231 40.1953L75.8792 36.5078L73.7989 39.5632L74.6255 40.126ZM69.4115 44.944L68.9274 44.0689L68.9194 44.0734L69.4115 44.944ZM55.2875 44.086L54.607 44.8188L54.6157 44.8267L55.2875 44.086ZM56.2115 30.16L56.783 30.9806L56.7859 30.9786L56.2115 30.16ZM70.2695 27.652L70.336 26.6542L70.336 26.6542L70.2695 27.652ZM74.4275 28.114L74.2777 29.1027L75.4275 29.2769V28.114H74.4275ZM60.1715 16.168L60.4588 17.1258L60.4663 17.1236L60.4737 17.1212L60.1715 16.168ZM55.2875 18.478L54.6367 19.2373L55.2159 19.7337L55.8478 19.3063L55.2875 18.478ZM54.4295 17.356L53.5351 17.8032L53.543 17.8192L53.5516 17.8349L54.4295 17.356ZM54.0335 16.036L53.4643 15.2138L53.0335 15.512V16.036H54.0335ZM59.5115 13.33L59.8147 14.283L59.8277 14.2787L59.5115 13.33ZM77.8595 42.898H76.8595V43.898H77.8595V42.898ZM82.8755 42.898L83.7946 42.5041L83.5349 41.898H82.8755V42.898ZM74.4275 30.952H75.4275V30.0692L74.5515 29.9597L74.4275 30.952ZM70.3355 30.556L70.236 31.551L70.2524 31.5527L70.269 31.5538L70.3355 30.556ZM58.8515 32.14L59.387 32.9845L59.3943 32.9799L59.4015 32.9752L58.8515 32.14ZM57.9935 41.974L57.2993 42.6938L57.3057 42.6999L57.3121 42.7059L57.9935 41.974ZM68.4875 42.304L68.0055 41.4277L67.9962 41.433L68.4875 42.304ZM72.7775 38.542L71.9638 37.9608L71.9638 37.9608L72.7775 38.542ZM82.489 44.0939L75.955 45.3479L76.332 47.3121L82.866 46.0581L82.489 44.0939ZM76.6114 45.4462C75.9616 45.1022 75.4505 44.6948 75.0589 44.2321L73.5321 45.5239C74.1085 46.2052 74.8294 46.7658 75.6756 47.2138L76.6114 45.4462ZM75.2931 44.9473L75.6231 40.1953L73.6279 40.0567L73.2979 44.8087L75.2931 44.9473ZM73.7989 39.5632C72.4737 41.5095 70.8503 43.0052 68.9274 44.069L69.8955 45.819C72.1086 44.5948 73.9612 42.8785 75.4521 40.6888L73.7989 39.5632ZM68.9194 44.0734C67.0546 45.1275 64.9817 45.66 62.6795 45.66V47.66C65.3052 47.66 67.7204 47.0485 69.9035 45.8146L68.9194 44.0734ZM62.6795 45.66C59.8423 45.66 57.6337 44.8639 55.9593 43.3453L54.6157 44.8267C56.7253 46.7401 59.4447 47.66 62.6795 47.66V45.66ZM55.9679 43.3532C54.3416 41.843 53.5155 39.8953 53.5155 37.42H51.5155C51.5155 40.4007 52.5374 42.897 54.607 44.8188L55.9679 43.3532ZM53.5155 37.42C53.5155 34.6075 54.6001 32.5008 56.783 30.9806L55.64 29.3394C52.8949 31.2512 51.5155 33.9845 51.5155 37.42H53.5155ZM56.7859 30.9786C59.0626 29.3809 62.3516 28.52 66.7715 28.52V26.52C62.1273 26.52 58.3763 27.4191 55.6371 29.3414L56.7859 30.9786ZM66.7715 28.52C67.7558 28.52 68.8988 28.5628 70.203 28.6498L70.336 26.6542C69.0002 26.5652 67.8112 26.52 66.7715 26.52V28.52ZM70.203 28.6498C71.4923 28.7357 72.8503 28.8865 74.2777 29.1027L74.5773 27.1253C73.1006 26.9015 71.6867 26.7443 70.336 26.6542L70.203 28.6498ZM75.4275 28.114V25.474H73.4275V28.114H75.4275ZM75.4275 25.474C75.4275 21.9557 74.6358 19.1303 72.8763 17.181C71.0993 15.2121 68.4936 14.31 65.2535 14.31V16.31C68.1294 16.31 70.1107 17.1019 71.3916 18.521C72.6902 19.9597 73.4275 22.2163 73.4275 25.474H75.4275ZM65.2535 14.31C63.5492 14.31 61.7526 14.6176 59.8692 15.2148L60.4737 17.1212C62.1984 16.5744 63.7897 16.31 65.2535 16.31V14.31ZM59.8841 15.2102C58.0288 15.7668 56.3085 16.58 54.7272 17.6497L55.8478 19.3063C57.2584 18.352 58.7941 17.6252 60.4588 17.1258L59.8841 15.2102ZM55.9383 17.7187C55.7489 17.5564 55.5328 17.2904 55.3074 16.8771L53.5516 17.8349C53.8542 18.3896 54.2101 18.8716 54.6367 19.2373L55.9383 17.7187ZM55.3239 16.9088C55.0882 16.4374 55.0335 16.1614 55.0335 16.036H53.0335C53.0335 16.6146 53.2428 17.2186 53.5351 17.8032L55.3239 16.9088ZM54.6027 16.8582C56.2393 15.7252 57.9759 14.868 59.8147 14.2829L59.2083 12.3771C57.175 13.024 55.2597 13.9708 53.4643 15.2138L54.6027 16.8582ZM59.8277 14.2787C61.7188 13.6483 63.5259 13.34 65.2535 13.34V11.34C63.2851 11.34 61.2642 11.6917 59.1953 12.3813L59.8277 14.2787ZM65.2535 13.34C69.2907 13.34 72.1374 14.3894 73.9865 16.316C75.843 18.2501 76.8595 21.2401 76.8595 25.474H78.8595C78.8595 20.9519 77.775 17.3749 75.4294 14.931C73.0765 12.4796 69.6203 11.34 65.2535 11.34V13.34ZM76.8595 25.474V42.898H78.8595V25.474H76.8595ZM77.8595 43.898H82.8755V41.898H77.8595V43.898ZM81.9563 43.2919C82.0397 43.4865 82.0735 43.6609 82.0735 43.822H84.0735C84.0735 43.367 83.9752 42.9255 83.7946 42.5041L81.9563 43.2919ZM82.0735 43.822C82.0735 43.9906 82.0178 44.2319 81.82 44.5615L83.535 45.5905C83.8652 45.0401 84.0735 44.4454 84.0735 43.822H82.0735ZM75.4275 33.592V30.952H73.4275V33.592H75.4275ZM74.5515 29.9597C73.1258 29.7815 71.7425 29.6476 70.402 29.5582L70.269 31.5538C71.5684 31.6404 72.9132 31.7705 74.3034 31.9443L74.5515 29.9597ZM70.435 29.561C69.0899 29.4265 67.8678 29.358 66.7715 29.358V31.358C67.7871 31.358 68.9411 31.4215 70.236 31.551L70.435 29.561ZM66.7715 29.358C63.2085 29.358 60.3405 29.9621 58.3015 31.3048L59.4015 32.9752C60.9705 31.9419 63.3825 31.358 66.7715 31.358V29.358ZM58.3159 31.2955C56.1989 32.638 55.1455 34.6867 55.1455 37.288H57.1455C57.1455 35.3132 57.8961 33.93 59.387 32.9845L58.3159 31.2955ZM55.1455 37.288C55.1455 39.4565 55.8455 41.2919 57.2993 42.6938L58.6876 41.2542C57.6775 40.2801 57.1455 38.9915 57.1455 37.288H55.1455ZM57.3121 42.7059C58.8068 44.0975 60.7386 44.756 63.0095 44.756V42.756C61.1443 42.756 59.7322 42.2265 58.6749 41.2421L57.3121 42.7059ZM63.0095 44.756C65.1208 44.756 67.1156 44.226 68.9788 43.175L67.9962 41.433C66.4273 42.318 64.7702 42.756 63.0095 42.756V44.756ZM68.9694 43.1802C70.8525 42.1445 72.3988 40.7926 73.5912 39.1232L71.9638 37.9608C70.9562 39.3714 69.6425 40.5275 68.0056 41.4278L68.9694 43.1802ZM73.5912 39.1232C74.8027 37.4271 75.4275 35.5764 75.4275 33.592H73.4275C73.4275 35.1276 72.9522 36.5769 71.9638 37.9608L73.5912 39.1232ZM108.71 46V47H109.491L109.68 46.2425L108.71 46ZM94.6524 46L93.716 46.3511L93.9594 47H94.6524V46ZM94.8504 43.822L94.7483 42.8272L94.2246 42.8809L93.9725 43.3431L94.8504 43.822ZM99.9984 43.294L100.1 44.2888L100.998 44.1967V43.294H99.9984ZM99.9984 4.882H100.998V3.882H99.9984V4.882ZM94.3224 4.882L93.4032 5.27592L93.663 5.882H94.3224V4.882ZM94.5204 2.704L94.3486 1.71885L93.8981 1.79738L93.6629 2.1895L94.5204 2.704ZM101.714 1.45L102.182 0.566211L101.88 0.406085L101.543 0.464854L101.714 1.45ZM103.562 2.902H104.562V2.53569L104.326 2.25605L103.562 2.902ZM103.562 43.162H102.562V44.162H103.562V43.162ZM108.842 45.472L107.876 45.2143L107.874 45.2219L107.872 45.2295L108.842 45.472ZM108.71 45H94.6524V47H108.71V45ZM95.5887 45.6489C95.4824 45.3654 95.4544 45.1809 95.4544 45.076H93.4544C93.4544 45.4991 93.5583 45.9306 93.716 46.3511L95.5887 45.6489ZM95.4544 45.076C95.4544 44.9601 95.5033 44.7133 95.7283 44.3009L93.9725 43.3431C93.6694 43.8987 93.4544 44.4879 93.4544 45.076H95.4544ZM94.9524 44.8168L100.1 44.2888L99.8963 42.2992L94.7483 42.8272L94.9524 44.8168ZM100.998 43.294V4.882H98.9984V43.294H100.998ZM99.9984 3.882H94.3224V5.882H99.9984V3.882ZM95.2415 4.48808C95.1581 4.29351 95.1244 4.11905 95.1244 3.958H93.1244C93.1244 4.41295 93.2226 4.85449 93.4032 5.27592L95.2415 4.48808ZM95.1244 3.958C95.1244 3.7894 95.1801 3.54811 95.3778 3.21849L93.6629 2.1895C93.3326 2.73989 93.1244 3.33459 93.1244 3.958H95.1244ZM94.6921 3.68914L101.886 2.43514L101.543 0.464854L94.3486 1.71885L94.6921 3.68914ZM101.246 2.33379C101.896 2.67778 102.407 3.08516 102.799 3.54794L104.326 2.25605C103.749 1.57484 103.028 1.01422 102.182 0.566211L101.246 2.33379ZM102.562 2.902V43.162H104.562V2.902H102.562ZM103.562 44.162H108.05V42.162H103.562V44.162ZM108.05 44.162C108.157 44.162 108.213 44.174 108.232 44.1797C108.249 44.1846 108.223 44.1799 108.184 44.1456C108.165 44.129 108.148 44.1095 108.133 44.0885C108.119 44.0676 108.11 44.0496 108.106 44.0377C108.097 44.0154 108.106 44.0248 108.106 44.086H110.106C110.106 43.5866 109.957 43.04 109.501 42.6404C109.07 42.2632 108.526 42.162 108.05 42.162V44.162ZM108.106 44.086C108.106 44.2024 108.054 44.5465 107.876 45.2143L109.809 45.7297C109.983 45.0775 110.106 44.4976 110.106 44.086H108.106ZM107.872 45.2295L107.74 45.7575L109.68 46.2425L109.812 45.7145L107.872 45.2295ZM135.386 46V47H136.167L136.356 46.2425L135.386 46ZM121.328 46L120.392 46.3511L120.635 47H121.328V46ZM121.526 43.822L121.424 42.8272L120.9 42.8809L120.648 43.3431L121.526 43.822ZM126.674 43.294L126.776 44.2888L127.674 44.1967V43.294H126.674ZM126.674 4.882H127.674V3.882H126.674V4.882ZM120.998 4.882L120.079 5.27592L120.339 5.882H120.998V4.882ZM121.196 2.704L121.024 1.71885L120.574 1.79738L120.339 2.1895L121.196 2.704ZM128.39 1.45L128.858 0.566211L128.556 0.406085L128.218 0.464854L128.39 1.45ZM130.238 2.902H131.238V2.53569L131.002 2.25605L130.238 2.902ZM130.238 43.162H129.238V44.162H130.238V43.162ZM135.518 45.472L134.552 45.2143L134.55 45.2219L134.548 45.2295L135.518 45.472ZM135.386 45H121.328V47H135.386V45ZM122.265 45.6489C122.158 45.3654 122.13 45.1809 122.13 45.076H120.13C120.13 45.4991 120.234 45.9306 120.392 46.3511L122.265 45.6489ZM122.13 45.076C122.13 44.9601 122.179 44.7133 122.404 44.3009L120.648 43.3431C120.345 43.8987 120.13 44.4879 120.13 45.076H122.13ZM121.628 44.8168L126.776 44.2888L126.572 42.2992L121.424 42.8272L121.628 44.8168ZM127.674 43.294V4.882H125.674V43.294H127.674ZM126.674 3.882H120.998V5.882H126.674V3.882ZM121.917 4.48808C121.834 4.29351 121.8 4.11905 121.8 3.958H119.8C119.8 4.41295 119.898 4.85449 120.079 5.27592L121.917 4.48808ZM121.8 3.958C121.8 3.7894 121.856 3.54811 122.054 3.21849L120.339 2.1895C120.008 2.73989 119.8 3.33459 119.8 3.958H121.8ZM121.368 3.68914L128.562 2.43514L128.218 0.464854L121.024 1.71885L121.368 3.68914ZM127.922 2.33379C128.572 2.67778 129.083 3.08516 129.475 3.54794L131.002 2.25605C130.425 1.57484 129.704 1.01422 128.858 0.566211L127.922 2.33379ZM129.238 2.902V43.162H131.238V2.902H129.238ZM130.238 44.162H134.726V42.162H130.238V44.162ZM134.726 44.162C134.833 44.162 134.888 44.174 134.908 44.1797C134.925 44.1846 134.899 44.1799 134.86 44.1456C134.841 44.129 134.823 44.1095 134.809 44.0885C134.795 44.0676 134.786 44.0496 134.782 44.0377C134.773 44.0154 134.782 44.0248 134.782 44.086H136.782C136.782 43.5866 136.633 43.04 136.177 42.6404C135.746 42.2632 135.202 42.162 134.726 42.162V44.162ZM134.782 44.086C134.782 44.2024 134.73 44.5465 134.552 45.2143L136.484 45.7297C136.658 45.0775 136.782 44.4976 136.782 44.086H134.782ZM134.548 45.2295L134.416 45.7575L136.356 46.2425L136.488 45.7145L134.548 45.2295ZM174.404 28.774V29.774H174.868L175.167 29.4199L174.404 28.774ZM152.228 28.774V27.774H151.228V28.774H152.228ZM155.528 39.73L154.771 40.3829L154.777 40.3899L154.783 40.3968L155.528 39.73ZM169.784 42.766L169.531 41.7986L169.525 41.8002L169.784 42.766ZM174.272 41.116L174.979 40.4089L174.453 39.8828L173.798 40.2355L174.272 41.116ZM175.064 42.304L174.136 42.6754L174.143 42.6929L174.15 42.7101L175.064 42.304ZM175.394 43.558L175.887 44.4282L176.454 44.107L176.389 43.4585L175.394 43.558ZM155.858 44.548L155.322 45.3924L155.334 45.3997L155.858 44.548ZM150.512 38.542L149.615 38.9831L149.618 38.9892L150.512 38.542ZM150.38 20.458L149.477 20.0292L149.473 20.036L150.38 20.458ZM155.594 14.452L156.126 15.2991L156.126 15.2991L155.594 14.452ZM175.658 26.794L176.563 27.2198L176.658 27.0175V26.794H175.658ZM152.492 25.936L151.505 25.7759L151.317 26.936H152.492V25.936ZM172.16 25.936V26.936H173.16V25.936H172.16ZM156.188 18.148L155.489 17.4329L155.481 17.4409L156.188 18.148ZM174.404 27.774H152.228V29.774H174.404V27.774ZM151.228 28.774V29.5H153.228V28.774H151.228ZM151.228 29.5C151.228 33.9419 152.376 37.6051 154.771 40.3829L156.285 39.0771C154.28 36.7509 153.228 33.5941 153.228 29.5H151.228ZM154.783 40.3968C157.239 43.1418 160.515 44.492 164.504 44.492V42.492C161.013 42.492 158.305 41.3342 156.273 39.0632L154.783 40.3968ZM164.504 44.492C166.315 44.492 168.162 44.2365 170.043 43.7318L169.525 41.8002C167.798 42.2635 166.125 42.492 164.504 42.492V44.492ZM170.037 43.7334C171.93 43.2377 173.508 42.6632 174.746 41.9965L173.798 40.2355C172.748 40.8008 171.334 41.3263 169.531 41.7986L170.037 43.7334ZM173.565 41.8231C173.826 42.0843 174.012 42.3674 174.136 42.6754L175.993 41.9326C175.764 41.3606 175.422 40.8517 174.979 40.4089L173.565 41.8231ZM174.15 42.7101C174.282 43.0069 174.365 43.3212 174.399 43.6575L176.389 43.4585C176.335 42.9148 176.198 42.3931 175.978 41.8979L174.15 42.7101ZM174.901 42.6878C171.392 44.675 167.733 45.66 163.91 45.66V47.66C168.095 47.66 172.092 46.577 175.887 44.4282L174.901 42.6878ZM163.91 45.66C160.987 45.66 158.491 44.9938 156.382 43.6963L155.334 45.3997C157.802 46.9182 160.673 47.66 163.91 47.66V45.66ZM156.394 43.7037C154.268 42.3542 152.606 40.4933 151.406 38.0948L149.618 38.9892C150.97 41.6947 152.873 43.8378 155.322 45.3923L156.394 43.7037ZM151.41 38.1009C150.212 35.6655 149.598 32.8073 149.598 29.5H147.598C147.598 33.0567 148.26 36.2265 149.615 38.9831L151.41 38.1009ZM149.598 29.5C149.598 26.1364 150.173 23.2726 151.287 20.88L149.473 20.036C148.211 22.7474 147.598 25.9116 147.598 29.5H149.598ZM151.283 20.8867C152.441 18.4476 154.056 16.5973 156.126 15.2991L155.063 13.6049C152.644 15.1227 150.783 17.2764 149.477 20.0293L151.283 20.8867ZM156.126 15.2991C158.188 14.0049 160.638 13.34 163.514 13.34V11.34C160.318 11.34 157.488 12.0831 155.063 13.6049L156.126 15.2991ZM163.514 13.34C167.358 13.34 170.074 14.4755 171.856 16.5968C173.667 18.7514 174.658 22.0918 174.658 26.794H176.658C176.658 21.8602 175.625 17.9736 173.388 15.3102C171.122 12.6135 167.766 11.34 163.514 11.34V13.34ZM174.753 26.3682C174.435 27.045 174.063 27.6294 173.641 28.1281L175.167 29.4199C175.714 28.7746 176.177 28.039 176.563 27.2198L174.753 26.3682ZM152.492 26.936H172.16V24.936H152.492V26.936ZM173.16 25.936C173.16 22.2633 172.422 19.3233 170.776 17.2882C169.098 15.2125 166.613 14.244 163.514 14.244V16.244C166.179 16.244 168.017 17.0575 169.221 18.5458C170.457 20.0747 171.16 22.4807 171.16 25.936H173.16ZM163.514 14.244C160.363 14.244 157.666 15.3047 155.489 17.433L156.887 18.863C158.67 17.1193 160.857 16.244 163.514 16.244V14.244ZM155.481 17.4409C153.368 19.5536 152.06 22.3561 151.505 25.7759L153.479 26.0961C153.981 23.0039 155.136 20.6144 156.895 18.8551L155.481 17.4409ZM204.833 46V47H205.614L205.803 46.2425L204.833 46ZM189.455 46L188.519 46.3511L188.762 47H189.455V46ZM189.653 43.822L189.536 42.8288L189.023 42.8893L188.775 43.3431L189.653 43.822ZM194.141 43.294L194.258 44.2872L195.141 44.1832V43.294H194.141ZM194.141 16.102H195.141V15.102H194.141V16.102ZM189.125 16.102L188.206 16.4959L188.466 17.102H189.125V16.102ZM189.323 13.924L189.135 12.9419L188.696 13.0262L188.466 13.4095L189.323 13.924ZM195.857 12.67L196.325 11.7862L196.014 11.6216L195.669 11.6879L195.857 12.67ZM197.705 14.122L198.7 14.228L198.745 13.8026L198.469 13.4761L197.705 14.122ZM196.847 22.174L195.853 22.068L197.773 22.5526L196.847 22.174ZM201.797 15.244L202.428 16.0202L202.437 16.0122L201.797 15.244ZM210.377 12.736L210.236 13.7259L210.273 13.7313L210.311 13.7338L210.377 12.736ZM212.159 13L212.923 12.3541L212.714 12.108L212.402 12.0299L212.159 13ZM213.413 14.98L214.413 14.9617L214.409 14.7478L214.318 14.5542L213.413 14.98ZM213.545 22.174L213.939 23.0931L214.557 22.8282L214.545 22.1557L213.545 22.174ZM211.301 21.976L210.326 22.1972L210.414 22.5866L210.746 22.808L211.301 21.976ZM209.849 15.574L210.824 15.3528L210.688 14.753L210.092 14.6039L209.849 15.574ZM203.513 17.488L204.11 18.2905L204.116 18.2856L204.123 18.2806L203.513 17.488ZM199.289 22.57L198.402 22.108L198.399 22.1152L199.289 22.57ZM197.705 43.162H196.705V44.162H197.705V43.162ZM204.965 45.472L203.999 45.2143L203.997 45.2219L203.995 45.2295L204.965 45.472ZM204.833 45H189.455V47H204.833V45ZM190.392 45.6489C190.285 45.3654 190.257 45.1809 190.257 45.076H188.257C188.257 45.4991 188.361 45.9306 188.519 46.3511L190.392 45.6489ZM190.257 45.076C190.257 44.9601 190.306 44.7133 190.531 44.3009L188.775 43.3431C188.472 43.8987 188.257 44.4879 188.257 45.076H190.257ZM189.77 44.8152L194.258 44.2872L194.024 42.3008L189.536 42.8288L189.77 44.8152ZM195.141 43.294V16.102H193.141V43.294H195.141ZM194.141 15.102H189.125V17.102H194.141V15.102ZM190.044 15.7081C189.961 15.5135 189.927 15.3391 189.927 15.178H187.927C187.927 15.6329 188.025 16.0745 188.206 16.4959L190.044 15.7081ZM189.927 15.178C189.927 15.0094 189.983 14.7681 190.181 14.4385L188.466 13.4095C188.135 13.9599 187.927 14.5546 187.927 15.178H189.927ZM189.512 14.9061L196.046 13.6521L195.669 11.6879L189.135 12.9419L189.512 14.9061ZM195.389 13.5538C196.039 13.8978 196.55 14.3052 196.942 14.7679L198.469 13.4761C197.892 12.7948 197.171 12.2342 196.325 11.7862L195.389 13.5538ZM196.711 14.016L195.853 22.068L197.842 22.28L198.7 14.228L196.711 14.016ZM197.773 22.5526C198.907 19.7798 200.465 17.6152 202.428 16.0201L201.167 14.4679C198.906 16.3048 197.163 18.7602 195.922 21.7954L197.773 22.5526ZM202.437 16.0122C204.388 14.3866 206.476 13.604 208.727 13.604V11.604C205.962 11.604 203.43 12.5814 201.157 14.4758L202.437 16.0122ZM208.727 13.604C209.153 13.604 209.654 13.6429 210.236 13.7259L210.519 11.7461C209.868 11.6531 209.27 11.604 208.727 11.604V13.604ZM210.311 13.7338C210.923 13.7746 211.457 13.8553 211.917 13.9701L212.402 12.0299C211.805 11.8807 211.151 11.7854 210.444 11.7382L210.311 13.7338ZM211.396 13.6459C211.818 14.1446 212.19 14.729 212.508 15.4058L214.318 14.5542C213.933 13.735 213.469 12.9994 212.923 12.3541L211.396 13.6459ZM212.413 14.9983L212.545 22.1923L214.545 22.1557L214.413 14.9617L212.413 14.9983ZM213.151 21.2549C212.974 21.3308 212.779 21.372 212.555 21.372V23.372C213.036 23.372 213.5 23.2812 213.939 23.0931L213.151 21.2549ZM212.555 21.372C212.329 21.372 212.102 21.3078 211.856 21.1439L210.746 22.808C211.293 23.1722 211.902 23.372 212.555 23.372V21.372ZM212.276 21.7548L210.824 15.3528L208.874 15.7952L210.326 22.1972L212.276 21.7548ZM210.092 14.6039C209.839 14.5406 209.581 14.508 209.321 14.508V16.508C209.413 16.508 209.508 16.5194 209.607 16.5441L210.092 14.6039ZM209.321 14.508C209.321 14.508 209.321 14.508 209.32 14.508C209.32 14.508 209.32 14.508 209.32 14.508C209.319 14.508 209.319 14.508 209.319 14.508C209.319 14.508 209.318 14.508 209.318 14.508C209.318 14.508 209.318 14.508 209.317 14.508C209.317 14.508 209.317 14.508 209.317 14.508C209.316 14.508 209.316 14.508 209.316 14.508C209.316 14.508 209.315 14.508 209.315 14.508C209.315 14.508 209.314 14.508 209.314 14.508C209.314 14.508 209.314 14.508 209.313 14.508C209.313 14.508 209.313 14.508 209.313 14.508C209.312 14.508 209.312 14.508 209.312 14.508C209.312 14.508 209.311 14.508 209.311 14.508C209.311 14.508 209.311 14.508 209.31 14.508C209.31 14.508 209.31 14.508 209.31 14.508C209.309 14.508 209.309 14.508 209.309 14.508C209.309 14.508 209.308 14.508 209.308 14.508C209.308 14.508 209.308 14.508 209.307 14.508C209.307 14.508 209.307 14.508 209.306 14.508C209.306 14.508 209.306 14.508 209.306 14.508C209.305 14.508 209.305 14.508 209.305 14.508C209.305 14.508 209.304 14.508 209.304 14.508C209.304 14.508 209.304 14.508 209.303 14.508C209.303 14.508 209.303 14.508 209.303 14.508C209.302 14.508 209.302 14.508 209.302 14.508C209.302 14.508 209.301 14.508 209.301 14.508C209.301 14.508 209.301 14.508 209.3 14.508C209.3 14.508 209.3 14.508 209.3 14.508C209.299 14.508 209.299 14.508 209.299 14.508C209.298 14.508 209.298 14.508 209.298 14.508C209.298 14.508 209.297 14.508 209.297 14.508C209.297 14.508 209.297 14.508 209.296 14.508C209.296 14.508 209.296 14.508 209.296 14.508C209.295 14.508 209.295 14.508 209.295 14.508C209.295 14.508 209.294 14.508 209.294 14.508C209.294 14.508 209.294 14.508 209.293 14.508C209.293 14.508 209.293 14.508 209.293 14.508C209.292 14.508 209.292 14.508 209.292 14.508C209.292 14.508 209.291 14.508 209.291 14.508C209.291 14.508 209.29 14.508 209.29 14.508C209.29 14.508 209.29 14.508 209.289 14.508C209.289 14.508 209.289 14.508 209.289 14.508C209.288 14.508 209.288 14.508 209.288 14.508C209.288 14.508 209.287 14.508 209.287 14.508C209.287 14.508 209.287 14.508 209.286 14.508C209.286 14.508 209.286 14.508 209.286 14.508C209.285 14.508 209.285 14.508 209.285 14.508C209.285 14.508 209.284 14.508 209.284 14.508C209.284 14.508 209.284 14.508 209.283 14.508C209.283 14.508 209.283 14.508 209.283 14.508C209.282 14.508 209.282 14.508 209.282 14.508C209.281 14.508 209.281 14.508 209.281 14.508C209.281 14.508 209.28 14.508 209.28 14.508C209.28 14.508 209.28 14.508 209.279 14.508C209.279 14.508 209.279 14.508 209.279 14.508C209.278 14.508 209.278 14.508 209.278 14.508C209.278 14.508 209.277 14.508 209.277 14.508C209.277 14.508 209.277 14.508 209.276 14.508C209.276 14.508 209.276 14.508 209.276 14.508C209.275 14.508 209.275 14.508 209.275 14.508C209.275 14.508 209.274 14.508 209.274 14.508C209.274 14.508 209.273 14.508 209.273 14.508C209.273 14.508 209.273 14.508 209.272 14.508C209.272 14.508 209.272 14.508 209.272 14.508C209.271 14.508 209.271 14.508 209.271 14.508C209.271 14.508 209.27 14.508 209.27 14.508C209.27 14.508 209.27 14.508 209.269 14.508C209.269 14.508 209.269 14.508 209.269 14.508C209.268 14.508 209.268 14.508 209.268 14.508C209.268 14.508 209.267 14.508 209.267 14.508C209.267 14.508 209.267 14.508 209.266 14.508C209.266 14.508 209.266 14.508 209.265 14.508C209.265 14.508 209.265 14.508 209.265 14.508C209.264 14.508 209.264 14.508 209.264 14.508C209.264 14.508 209.263 14.508 209.263 14.508C209.263 14.508 209.263 14.508 209.262 14.508C209.262 14.508 209.262 14.508 209.262 14.508C209.261 14.508 209.261 14.508 209.261 14.508C209.261 14.508 209.26 14.508 209.26 14.508C209.26 14.508 209.26 14.508 209.259 14.508C209.259 14.508 209.259 14.508 209.259 14.508C209.258 14.508 209.258 14.508 209.258 14.508C209.257 14.508 209.257 14.508 209.257 14.508C209.257 14.508 209.256 14.508 209.256 14.508C209.256 14.508 209.256 14.508 209.255 14.508C209.255 14.508 209.255 14.508 209.255 14.508C209.254 14.508 209.254 14.508 209.254 14.508C209.254 14.508 209.253 14.508 209.253 14.508C209.253 14.508 209.253 14.508 209.252 14.508C209.252 14.508 209.252 14.508 209.252 14.508C209.251 14.508 209.251 14.508 209.251 14.508C209.251 14.508 209.25 14.508 209.25 14.508C209.25 14.508 209.25 14.508 209.249 14.508C209.249 14.508 209.249 14.508 209.248 14.508C209.248 14.508 209.248 14.508 209.248 14.508C209.247 14.508 209.247 14.508 209.247 14.508C209.247 14.508 209.246 14.508 209.246 14.508C209.246 14.508 209.246 14.508 209.245 14.508C209.245 14.508 209.245 14.508 209.245 14.508C209.244 14.508 209.244 14.508 209.244 14.508C209.244 14.508 209.243 14.508 209.243 14.508C209.243 14.508 209.243 14.508 209.242 14.508C209.242 14.508 209.242 14.508 209.242 14.508C209.241 14.508 209.241 14.508 209.241 14.508C209.24 14.508 209.24 14.508 209.24 14.508C209.24 14.508 209.239 14.508 209.239 14.508C209.239 14.508 209.239 14.508 209.238 14.508C209.238 14.508 209.238 14.508 209.238 14.508C209.237 14.508 209.237 14.508 209.237 14.508C209.237 14.508 209.236 14.508 209.236 14.508C209.236 14.508 209.236 14.508 209.235 14.508C209.235 14.508 209.235 14.508 209.235 14.508C209.234 14.508 209.234 14.508 209.234 14.508C209.234 14.508 209.233 14.508 209.233 14.508C209.233 14.508 209.232 14.508 209.232 14.508C209.232 14.508 209.232 14.508 209.231 14.508C209.231 14.508 209.231 14.508 209.231 14.508C209.23 14.508 209.23 14.508 209.23 14.508C209.23 14.508 209.229 14.508 209.229 14.508C209.229 14.508 209.229 14.508 209.228 14.508C209.228 14.508 209.228 14.508 209.228 14.508C209.227 14.508 209.227 14.508 209.227 14.508C209.227 14.508 209.226 14.508 209.226 14.508C209.226 14.508 209.226 14.508 209.225 14.508C209.225 14.508 209.225 14.508 209.224 14.508C209.224 14.508 209.224 14.508 209.224 14.508C209.223 14.508 209.223 14.508 209.223 14.508C209.223 14.508 209.222 14.508 209.222 14.508C209.222 14.508 209.222 14.508 209.221 14.508C209.221 14.508 209.221 14.508 209.221 14.508C209.22 14.508 209.22 14.508 209.22 14.508C209.22 14.508 209.219 14.508 209.219 14.508C209.219 14.508 209.219 14.508 209.218 14.508C209.218 14.508 209.218 14.508 209.218 14.508C209.217 14.508 209.217 14.508 209.217 14.508C209.217 14.508 209.216 14.508 209.216 14.508C209.216 14.508 209.215 14.508 209.215 14.508C209.215 14.508 209.215 14.508 209.214 14.508C209.214 14.508 209.214 14.508 209.214 14.508C209.213 14.508 209.213 14.508 209.213 14.508C209.213 14.508 209.212 14.508 209.212 14.508C209.212 14.508 209.212 14.508 209.211 14.508C209.211 14.508 209.211 14.508 209.211 14.508C209.21 14.508 209.21 14.508 209.21 14.508C209.21 14.508 209.209 14.508 209.209 14.508C209.209 14.508 209.209 14.508 209.208 14.508C209.208 14.508 209.208 14.508 209.207 14.508C209.207 14.508 209.207 14.508 209.207 14.508C209.206 14.508 209.206 14.508 209.206 14.508C209.206 14.508 209.205 14.508 209.205 14.508C209.205 14.508 209.205 14.508 209.204 14.508C209.204 14.508 209.204 14.508 209.204 14.508C209.203 14.508 209.203 14.508 209.203 14.508C209.203 14.508 209.202 14.508 209.202 14.508C209.202 14.508 209.202 14.508 209.201 14.508C209.201 14.508 209.201 14.508 209.201 14.508C209.2 14.508 209.2 14.508 209.2 14.508C209.199 14.508 209.199 14.508 209.199 14.508C209.199 14.508 209.198 14.508 209.198 14.508C209.198 14.508 209.198 14.508 209.197 14.508C209.197 14.508 209.197 14.508 209.197 14.508C209.196 14.508 209.196 14.508 209.196 14.508C209.196 14.508 209.195 14.508 209.195 14.508C209.195 14.508 209.195 14.508 209.194 14.508C209.194 14.508 209.194 14.508 209.194 14.508C209.193 14.508 209.193 14.508 209.193 14.508C209.193 14.508 209.192 14.508 209.192 14.508C209.192 14.508 209.191 14.508 209.191 14.508C209.191 14.508 209.191 14.508 209.19 14.508C209.19 14.508 209.19 14.508 209.19 14.508C209.189 14.508 209.189 14.508 209.189 14.508C209.189 14.508 209.188 14.508 209.188 14.508C209.188 14.508 209.188 14.508 209.187 14.508C209.187 14.508 209.187 14.508 209.187 14.508C209.186 14.508 209.186 14.508 209.186 14.508C209.186 14.508 209.185 14.508 209.185 14.508C209.185 14.508 209.185 14.508 209.184 14.508C209.184 14.508 209.184 14.508 209.184 14.508C209.183 14.508 209.183 14.508 209.183 14.508C209.182 14.508 209.182 14.508 209.182 14.508C209.182 14.508 209.181 14.508 209.181 14.508C209.181 14.508 209.181 14.508 209.18 14.508C209.18 14.508 209.18 14.508 209.18 14.508C209.179 14.508 209.179 14.508 209.179 14.508C209.179 14.508 209.178 14.508 209.178 14.508C209.178 14.508 209.178 14.508 209.177 14.508C209.177 14.508 209.177 14.508 209.177 14.508C209.176 14.508 209.176 14.508 209.176 14.508C209.176 14.508 209.175 14.508 209.175 14.508C209.175 14.508 209.174 14.508 209.174 14.508C209.174 14.508 209.174 14.508 209.173 14.508C209.173 14.508 209.173 14.508 209.173 14.508C209.172 14.508 209.172 14.508 209.172 14.508C209.172 14.508 209.171 14.508 209.171 14.508C209.171 14.508 209.171 14.508 209.17 14.508C209.17 14.508 209.17 14.508 209.17 14.508C209.169 14.508 209.169 14.508 209.169 14.508C209.169 14.508 209.168 14.508 209.168 14.508C209.168 14.508 209.168 14.508 209.167 14.508C209.167 14.508 209.167 14.508 209.166 14.508C209.166 14.508 209.166 14.508 209.166 14.508C209.165 14.508 209.165 14.508 209.165 14.508C209.165 14.508 209.164 14.508 209.164 14.508C209.164 14.508 209.164 14.508 209.163 14.508C209.163 14.508 209.163 14.508 209.163 14.508C209.162 14.508 209.162 14.508 209.162 14.508C209.162 14.508 209.161 14.508 209.161 14.508C209.161 14.508 209.161 14.508 209.16 14.508C209.16 14.508 209.16 14.508 209.16 14.508C209.159 14.508 209.159 14.508 209.159 14.508C209.158 14.508 209.158 14.508 209.158 14.508C209.158 14.508 209.157 14.508 209.157 14.508C209.157 14.508 209.157 14.508 209.156 14.508C209.156 14.508 209.156 14.508 209.156 14.508C209.155 14.508 209.155 14.508 209.155 14.508C209.155 14.508 209.154 14.508 209.154 14.508C209.154 14.508 209.154 14.508 209.153 14.508C209.153 14.508 209.153 14.508 209.153 14.508C209.152 14.508 209.152 14.508 209.152 14.508C209.152 14.508 209.151 14.508 209.151 14.508C209.151 14.508 209.151 14.508 209.15 14.508C209.15 14.508 209.15 14.508 209.149 14.508C209.149 14.508 209.149 14.508 209.149 14.508C209.148 14.508 209.148 14.508 209.148 14.508C209.148 14.508 209.147 14.508 209.147 14.508C209.147 14.508 209.147 14.508 209.146 14.508C209.146 14.508 209.146 14.508 209.146 14.508C209.145 14.508 209.145 14.508 209.145 14.508C209.145 14.508 209.144 14.508 209.144 14.508C209.144 14.508 209.144 14.508 209.143 14.508C209.143 14.508 209.143 14.508 209.143 14.508C209.142 14.508 209.142 14.508 209.142 14.508C209.141 14.508 209.141 14.508 209.141 14.508C209.141 14.508 209.14 14.508 209.14 14.508C209.14 14.508 209.14 14.508 209.139 14.508C209.139 14.508 209.139 14.508 209.139 14.508C209.138 14.508 209.138 14.508 209.138 14.508C209.138 14.508 209.137 14.508 209.137 14.508C209.137 14.508 209.137 14.508 209.136 14.508C209.136 14.508 209.136 14.508 209.136 14.508C209.135 14.508 209.135 14.508 209.135 14.508C209.135 14.508 209.134 14.508 209.134 14.508C209.134 14.508 209.133 14.508 209.133 14.508C209.133 14.508 209.133 14.508 209.132 14.508C209.132 14.508 209.132 14.508 209.132 14.508C209.131 14.508 209.131 14.508 209.131 14.508C209.131 14.508 209.13 14.508 209.13 14.508C209.13 14.508 209.13 14.508 209.129 14.508C209.129 14.508 209.129 14.508 209.129 14.508C209.128 14.508 209.128 14.508 209.128 14.508C209.128 14.508 209.127 14.508 209.127 14.508C209.127 14.508 209.127 14.508 209.126 14.508C209.126 14.508 209.126 14.508 209.125 14.508C209.125 14.508 209.125 14.508 209.125 14.508C209.124 14.508 209.124 14.508 209.124 14.508C209.124 14.508 209.123 14.508 209.123 14.508C209.123 14.508 209.123 14.508 209.122 14.508C209.122 14.508 209.122 14.508 209.122 14.508C209.121 14.508 209.121 14.508 209.121 14.508C209.121 14.508 209.12 14.508 209.12 14.508C209.12 14.508 209.12 14.508 209.119 14.508C209.119 14.508 209.119 14.508 209.119 14.508C209.118 14.508 209.118 14.508 209.118 14.508C209.118 14.508 209.117 14.508 209.117 14.508C209.117 14.508 209.116 14.508 209.116 14.508C209.116 14.508 209.116 14.508 209.115 14.508C209.115 14.508 209.115 14.508 209.115 14.508C209.114 14.508 209.114 14.508 209.114 14.508C209.114 14.508 209.113 14.508 209.113 14.508C209.113 14.508 209.113 14.508 209.112 14.508C209.112 14.508 209.112 14.508 209.112 14.508C209.111 14.508 209.111 14.508 209.111 14.508C209.111 14.508 209.11 14.508 209.11 14.508C209.11 14.508 209.11 14.508 209.109 14.508C209.109 14.508 209.109 14.508 209.108 14.508C209.108 14.508 209.108 14.508 209.108 14.508C209.107 14.508 209.107 14.508 209.107 14.508C209.107 14.508 209.106 14.508 209.106 14.508C209.106 14.508 209.106 14.508 209.105 14.508C209.105 14.508 209.105 14.508 209.105 14.508C209.104 14.508 209.104 14.508 209.104 14.508C209.104 14.508 209.103 14.508 209.103 14.508C209.103 14.508 209.103 14.508 209.102 14.508C209.102 14.508 209.102 14.508 209.102 14.508C209.101 14.508 209.101 14.508 209.101 14.508C209.1 14.508 209.1 14.508 209.1 14.508C209.1 14.508 209.099 14.508 209.099 14.508C209.099 14.508 209.099 14.508 209.098 14.508C209.098 14.508 209.098 14.508 209.098 14.508C209.097 14.508 209.097 14.508 209.097 14.508C209.097 14.508 209.096 14.508 209.096 14.508C209.096 14.508 209.096 14.508 209.095 14.508C209.095 14.508 209.095 14.508 209.095 14.508C209.094 14.508 209.094 14.508 209.094 14.508C209.094 14.508 209.093 14.508 209.093 14.508C209.093 14.508 209.092 14.508 209.092 14.508C209.092 14.508 209.092 14.508 209.091 14.508C209.091 14.508 209.091 14.508 209.091 14.508C209.09 14.508 209.09 14.508 209.09 14.508C209.09 14.508 209.089 14.508 209.089 14.508C209.089 14.508 209.089 14.508 209.088 14.508C209.088 14.508 209.088 14.508 209.088 14.508C209.087 14.508 209.087 14.508 209.087 14.508C209.087 14.508 209.086 14.508 209.086 14.508C209.086 14.508 209.086 14.508 209.085 14.508C209.085 14.508 209.085 14.508 209.085 14.508C209.084 14.508 209.084 14.508 209.084 14.508C209.083 14.508 209.083 14.508 209.083 14.508C209.083 14.508 209.082 14.508 209.082 14.508C209.082 14.508 209.082 14.508 209.081 14.508C209.081 14.508 209.081 14.508 209.081 14.508C209.08 14.508 209.08 14.508 209.08 14.508C209.08 14.508 209.079 14.508 209.079 14.508C209.079 14.508 209.079 14.508 209.078 14.508C209.078 14.508 209.078 14.508 209.078 14.508C209.077 14.508 209.077 14.508 209.077 14.508C209.077 14.508 209.076 14.508 209.076 14.508C209.076 14.508 209.075 14.508 209.075 14.508C209.075 14.508 209.075 14.508 209.074 14.508C209.074 14.508 209.074 14.508 209.074 14.508C209.073 14.508 209.073 14.508 209.073 14.508C209.073 14.508 209.072 14.508 209.072 14.508C209.072 14.508 209.072 14.508 209.071 14.508C209.071 14.508 209.071 14.508 209.071 14.508C209.07 14.508 209.07 14.508 209.07 14.508C209.07 14.508 209.069 14.508 209.069 14.508C209.069 14.508 209.069 14.508 209.068 14.508C209.068 14.508 209.068 14.508 209.067 14.508C209.067 14.508 209.067 14.508 209.067 14.508C209.066 14.508 209.066 14.508 209.066 14.508C209.066 14.508 209.065 14.508 209.065 14.508C209.065 14.508 209.065 14.508 209.064 14.508C209.064 14.508 209.064 14.508 209.064 14.508C209.063 14.508 209.063 14.508 209.063 14.508C209.063 14.508 209.062 14.508 209.062 14.508C209.062 14.508 209.062 14.508 209.061 14.508C209.061 14.508 209.061 14.508 209.061 14.508C209.06 14.508 209.06 14.508 209.06 14.508C209.059 14.508 209.059 14.508 209.059 14.508C209.059 14.508 209.058 14.508 209.058 14.508C209.058 14.508 209.058 14.508 209.057 14.508C209.057 14.508 209.057 14.508 209.057 14.508C209.056 14.508 209.056 14.508 209.056 14.508C209.056 14.508 209.055 14.508 209.055 14.508C209.055 14.508 209.055 14.508 209.054 14.508C209.054 14.508 209.054 14.508 209.054 14.508C209.053 14.508 209.053 14.508 209.053 14.508C209.053 14.508 209.052 14.508 209.052 14.508C209.052 14.508 209.052 14.508 209.051 14.508C209.051 14.508 209.051 14.508 209.05 14.508C209.05 14.508 209.05 14.508 209.05 14.508C209.049 14.508 209.049 14.508 209.049 14.508C209.049 14.508 209.048 14.508 209.048 14.508C209.048 14.508 209.048 14.508 209.047 14.508C209.047 14.508 209.047 14.508 209.047 14.508C209.046 14.508 209.046 14.508 209.046 14.508C209.046 14.508 209.045 14.508 209.045 14.508C209.045 14.508 209.045 14.508 209.044 14.508C209.044 14.508 209.044 14.508 209.044 14.508C209.043 14.508 209.043 14.508 209.043 14.508C209.042 14.508 209.042 14.508 209.042 14.508C209.042 14.508 209.041 14.508 209.041 14.508C209.041 14.508 209.041 14.508 209.04 14.508C209.04 14.508 209.04 14.508 209.04 14.508C209.039 14.508 209.039 14.508 209.039 14.508C209.039 14.508 209.038 14.508 209.038 14.508C209.038 14.508 209.038 14.508 209.037 14.508C209.037 14.508 209.037 14.508 209.037 14.508C209.036 14.508 209.036 14.508 209.036 14.508C209.036 14.508 209.035 14.508 209.035 14.508C209.035 14.508 209.034 14.508 209.034 14.508C209.034 14.508 209.034 14.508 209.033 14.508C209.033 14.508 209.033 14.508 209.033 14.508C209.032 14.508 209.032 14.508 209.032 14.508C209.032 14.508 209.031 14.508 209.031 14.508C209.031 14.508 209.031 14.508 209.03 14.508C209.03 14.508 209.03 14.508 209.03 14.508C209.029 14.508 209.029 14.508 209.029 14.508C209.029 14.508 209.028 14.508 209.028 14.508C209.028 14.508 209.028 14.508 209.027 14.508C209.027 14.508 209.027 14.508 209.026 14.508C209.026 14.508 209.026 14.508 209.026 14.508C209.025 14.508 209.025 14.508 209.025 14.508C209.025 14.508 209.024 14.508 209.024 14.508C209.024 14.508 209.024 14.508 209.023 14.508C209.023 14.508 209.023 14.508 209.023 14.508C209.022 14.508 209.022 14.508 209.022 14.508C209.022 14.508 209.021 14.508 209.021 14.508C209.021 14.508 209.021 14.508 209.02 14.508C209.02 14.508 209.02 14.508 209.02 14.508C209.019 14.508 209.019 14.508 209.019 14.508C209.019 14.508 209.018 14.508 209.018 14.508C209.018 14.508 209.017 14.508 209.017 14.508C209.017 14.508 209.017 14.508 209.016 14.508C209.016 14.508 209.016 14.508 209.016 14.508C209.015 14.508 209.015 14.508 209.015 14.508C209.015 14.508 209.014 14.508 209.014 14.508C209.014 14.508 209.014 14.508 209.013 14.508C209.013 14.508 209.013 14.508 209.013 14.508C209.012 14.508 209.012 14.508 209.012 14.508C209.012 14.508 209.011 14.508 209.011 14.508C209.011 14.508 209.011 14.508 209.01 14.508C209.01 14.508 209.01 14.508 209.009 14.508C209.009 14.508 209.009 14.508 209.009 14.508C209.008 14.508 209.008 14.508 209.008 14.508C209.008 14.508 209.007 14.508 209.007 14.508C209.007 14.508 209.007 14.508 209.006 14.508C209.006 14.508 209.006 14.508 209.006 14.508C209.005 14.508 209.005 14.508 209.005 14.508C209.005 14.508 209.004 14.508 209.004 14.508C209.004 14.508 209.004 14.508 209.003 14.508C209.003 14.508 209.003 14.508 209.003 14.508C209.002 14.508 209.002 14.508 209.002 14.508C209.001 14.508 209.001 14.508 209.001 14.508C209.001 14.508 209 14.508 209 14.508C209 14.508 209 14.508 208.999 14.508C208.999 14.508 208.999 14.508 208.999 14.508C208.998 14.508 208.998 14.508 208.998 14.508C208.998 14.508 208.997 14.508 208.997 14.508C208.997 14.508 208.997 14.508 208.996 14.508C208.996 14.508 208.996 14.508 208.996 14.508C208.995 14.508 208.995 14.508 208.995 14.508C208.995 14.508 208.994 14.508 208.994 14.508C208.994 14.508 208.993 14.508 208.993 14.508C208.993 14.508 208.993 14.508 208.992 14.508C208.992 14.508 208.992 14.508 208.992 14.508C208.991 14.508 208.991 14.508 208.991 14.508C208.991 14.508 208.99 14.508 208.99 14.508C208.99 14.508 208.99 14.508 208.989 14.508C208.989 14.508 208.989 14.508 208.989 14.508C208.988 14.508 208.988 14.508 208.988 14.508C208.988 14.508 208.987 14.508 208.987 14.508C208.987 14.508 208.987 14.508 208.986 14.508C208.986 14.508 208.986 14.508 208.986 14.508C208.985 14.508 208.985 14.508 208.985 14.508C208.984 14.508 208.984 14.508 208.984 14.508C208.984 14.508 208.983 14.508 208.983 14.508C208.983 14.508 208.983 14.508 208.982 14.508C208.982 14.508 208.982 14.508 208.982 14.508C208.981 14.508 208.981 14.508 208.981 14.508C208.981 14.508 208.98 14.508 208.98 14.508C208.98 14.508 208.98 14.508 208.979 14.508C208.979 14.508 208.979 14.508 208.979 14.508C208.978 14.508 208.978 14.508 208.978 14.508C208.978 14.508 208.977 14.508 208.977 14.508C208.977 14.508 208.976 14.508 208.976 14.508C208.976 14.508 208.976 14.508 208.975 14.508C208.975 14.508 208.975 14.508 208.975 14.508C208.974 14.508 208.974 14.508 208.974 14.508C208.974 14.508 208.973 14.508 208.973 14.508C208.973 14.508 208.973 14.508 208.972 14.508C208.972 14.508 208.972 14.508 208.972 14.508C208.971 14.508 208.971 14.508 208.971 14.508C208.971 14.508 208.97 14.508 208.97 14.508C208.97 14.508 208.97 14.508 208.969 14.508C208.969 14.508 208.969 14.508 208.968 14.508C208.968 14.508 208.968 14.508 208.968 14.508C208.967 14.508 208.967 14.508 208.967 14.508C208.967 14.508 208.966 14.508 208.966 14.508C208.966 14.508 208.966 14.508 208.965 14.508C208.965 14.508 208.965 14.508 208.965 14.508C208.964 14.508 208.964 14.508 208.964 14.508C208.964 14.508 208.963 14.508 208.963 14.508C208.963 14.508 208.963 14.508 208.962 14.508C208.962 14.508 208.962 14.508 208.962 14.508C208.961 14.508 208.961 14.508 208.961 14.508C208.96 14.508 208.96 14.508 208.96 14.508C208.96 14.508 208.959 14.508 208.959 14.508C208.959 14.508 208.959 14.508 208.958 14.508C208.958 14.508 208.958 14.508 208.958 14.508C208.957 14.508 208.957 14.508 208.957 14.508C208.957 14.508 208.956 14.508 208.956 14.508C208.956 14.508 208.956 14.508 208.955 14.508C208.955 14.508 208.955 14.508 208.955 14.508C208.954 14.508 208.954 14.508 208.954 14.508C208.954 14.508 208.953 14.508 208.953 14.508C208.953 14.508 208.953 14.508 208.952 14.508C208.952 14.508 208.952 14.508 208.951 14.508C208.951 14.508 208.951 14.508 208.951 14.508C208.95 14.508 208.95 14.508 208.95 14.508C208.95 14.508 208.949 14.508 208.949 14.508C208.949 14.508 208.949 14.508 208.948 14.508C208.948 14.508 208.948 14.508 208.948 14.508C208.947 14.508 208.947 14.508 208.947 14.508C208.947 14.508 208.946 14.508 208.946 14.508C208.946 14.508 208.946 14.508 208.945 14.508C208.945 14.508 208.945 14.508 208.945 14.508C208.944 14.508 208.944 14.508 208.944 14.508C208.943 14.508 208.943 14.508 208.943 14.508C208.943 14.508 208.942 14.508 208.942 14.508C208.942 14.508 208.942 14.508 208.941 14.508C208.941 14.508 208.941 14.508 208.941 14.508C208.94 14.508 208.94 14.508 208.94 14.508C208.94 14.508 208.939 14.508 208.939 14.508C208.939 14.508 208.939 14.508 208.938 14.508C208.938 14.508 208.938 14.508 208.938 14.508C208.937 14.508 208.937 14.508 208.937 14.508C208.937 14.508 208.936 14.508 208.936 14.508C208.936 14.508 208.935 14.508 208.935 14.508C208.935 14.508 208.935 14.508 208.934 14.508C208.934 14.508 208.934 14.508 208.934 14.508C208.933 14.508 208.933 14.508 208.933 14.508C208.933 14.508 208.932 14.508 208.932 14.508C208.932 14.508 208.932 14.508 208.931 14.508C208.931 14.508 208.931 14.508 208.931 14.508C208.93 14.508 208.93 14.508 208.93 14.508C208.93 14.508 208.929 14.508 208.929 14.508C208.929 14.508 208.929 14.508 208.928 14.508C208.928 14.508 208.928 14.508 208.927 14.508C208.927 14.508 208.927 14.508 208.927 14.508C208.926 14.508 208.926 14.508 208.926 14.508C208.926 14.508 208.925 14.508 208.925 14.508V16.508C208.925 16.508 208.926 16.508 208.926 16.508C208.926 16.508 208.926 16.508 208.927 16.508C208.927 16.508 208.927 16.508 208.927 16.508C208.928 16.508 208.928 16.508 208.928 16.508C208.929 16.508 208.929 16.508 208.929 16.508C208.929 16.508 208.93 16.508 208.93 16.508C208.93 16.508 208.93 16.508 208.931 16.508C208.931 16.508 208.931 16.508 208.931 16.508C208.932 16.508 208.932 16.508 208.932 16.508C208.932 16.508 208.933 16.508 208.933 16.508C208.933 16.508 208.933 16.508 208.934 16.508C208.934 16.508 208.934 16.508 208.934 16.508C208.935 16.508 208.935 16.508 208.935 16.508C208.935 16.508 208.936 16.508 208.936 16.508C208.936 16.508 208.937 16.508 208.937 16.508C208.937 16.508 208.937 16.508 208.938 16.508C208.938 16.508 208.938 16.508 208.938 16.508C208.939 16.508 208.939 16.508 208.939 16.508C208.939 16.508 208.94 16.508 208.94 16.508C208.94 16.508 208.94 16.508 208.941 16.508C208.941 16.508 208.941 16.508 208.941 16.508C208.942 16.508 208.942 16.508 208.942 16.508C208.942 16.508 208.943 16.508 208.943 16.508C208.943 16.508 208.943 16.508 208.944 16.508C208.944 16.508 208.944 16.508 208.945 16.508C208.945 16.508 208.945 16.508 208.945 16.508C208.946 16.508 208.946 16.508 208.946 16.508C208.946 16.508 208.947 16.508 208.947 16.508C208.947 16.508 208.947 16.508 208.948 16.508C208.948 16.508 208.948 16.508 208.948 16.508C208.949 16.508 208.949 16.508 208.949 16.508C208.949 16.508 208.95 16.508 208.95 16.508C208.95 16.508 208.95 16.508 208.951 16.508C208.951 16.508 208.951 16.508 208.951 16.508C208.952 16.508 208.952 16.508 208.952 16.508C208.953 16.508 208.953 16.508 208.953 16.508C208.953 16.508 208.954 16.508 208.954 16.508C208.954 16.508 208.954 16.508 208.955 16.508C208.955 16.508 208.955 16.508 208.955 16.508C208.956 16.508 208.956 16.508 208.956 16.508C208.956 16.508 208.957 16.508 208.957 16.508C208.957 16.508 208.957 16.508 208.958 16.508C208.958 16.508 208.958 16.508 208.958 16.508C208.959 16.508 208.959 16.508 208.959 16.508C208.959 16.508 208.96 16.508 208.96 16.508C208.96 16.508 208.96 16.508 208.961 16.508C208.961 16.508 208.961 16.508 208.962 16.508C208.962 16.508 208.962 16.508 208.962 16.508C208.963 16.508 208.963 16.508 208.963 16.508C208.963 16.508 208.964 16.508 208.964 16.508C208.964 16.508 208.964 16.508 208.965 16.508C208.965 16.508 208.965 16.508 208.965 16.508C208.966 16.508 208.966 16.508 208.966 16.508C208.966 16.508 208.967 16.508 208.967 16.508C208.967 16.508 208.967 16.508 208.968 16.508C208.968 16.508 208.968 16.508 208.968 16.508C208.969 16.508 208.969 16.508 208.969 16.508C208.97 16.508 208.97 16.508 208.97 16.508C208.97 16.508 208.971 16.508 208.971 16.508C208.971 16.508 208.971 16.508 208.972 16.508C208.972 16.508 208.972 16.508 208.972 16.508C208.973 16.508 208.973 16.508 208.973 16.508C208.973 16.508 208.974 16.508 208.974 16.508C208.974 16.508 208.974 16.508 208.975 16.508C208.975 16.508 208.975 16.508 208.975 16.508C208.976 16.508 208.976 16.508 208.976 16.508C208.976 16.508 208.977 16.508 208.977 16.508C208.977 16.508 208.978 16.508 208.978 16.508C208.978 16.508 208.978 16.508 208.979 16.508C208.979 16.508 208.979 16.508 208.979 16.508C208.98 16.508 208.98 16.508 208.98 16.508C208.98 16.508 208.981 16.508 208.981 16.508C208.981 16.508 208.981 16.508 208.982 16.508C208.982 16.508 208.982 16.508 208.982 16.508C208.983 16.508 208.983 16.508 208.983 16.508C208.983 16.508 208.984 16.508 208.984 16.508C208.984 16.508 208.984 16.508 208.985 16.508C208.985 16.508 208.985 16.508 208.986 16.508C208.986 16.508 208.986 16.508 208.986 16.508C208.987 16.508 208.987 16.508 208.987 16.508C208.987 16.508 208.988 16.508 208.988 16.508C208.988 16.508 208.988 16.508 208.989 16.508C208.989 16.508 208.989 16.508 208.989 16.508C208.99 16.508 208.99 16.508 208.99 16.508C208.99 16.508 208.991 16.508 208.991 16.508C208.991 16.508 208.991 16.508 208.992 16.508C208.992 16.508 208.992 16.508 208.992 16.508C208.993 16.508 208.993 16.508 208.993 16.508C208.993 16.508 208.994 16.508 208.994 16.508C208.994 16.508 208.995 16.508 208.995 16.508C208.995 16.508 208.995 16.508 208.996 16.508C208.996 16.508 208.996 16.508 208.996 16.508C208.997 16.508 208.997 16.508 208.997 16.508C208.997 16.508 208.998 16.508 208.998 16.508C208.998 16.508 208.998 16.508 208.999 16.508C208.999 16.508 208.999 16.508 208.999 16.508C209 16.508 209 16.508 209 16.508C209 16.508 209.001 16.508 209.001 16.508C209.001 16.508 209.001 16.508 209.002 16.508C209.002 16.508 209.002 16.508 209.003 16.508C209.003 16.508 209.003 16.508 209.003 16.508C209.004 16.508 209.004 16.508 209.004 16.508C209.004 16.508 209.005 16.508 209.005 16.508C209.005 16.508 209.005 16.508 209.006 16.508C209.006 16.508 209.006 16.508 209.006 16.508C209.007 16.508 209.007 16.508 209.007 16.508C209.007 16.508 209.008 16.508 209.008 16.508C209.008 16.508 209.008 16.508 209.009 16.508C209.009 16.508 209.009 16.508 209.009 16.508C209.01 16.508 209.01 16.508 209.01 16.508C209.011 16.508 209.011 16.508 209.011 16.508C209.011 16.508 209.012 16.508 209.012 16.508C209.012 16.508 209.012 16.508 209.013 16.508C209.013 16.508 209.013 16.508 209.013 16.508C209.014 16.508 209.014 16.508 209.014 16.508C209.014 16.508 209.015 16.508 209.015 16.508C209.015 16.508 209.015 16.508 209.016 16.508C209.016 16.508 209.016 16.508 209.016 16.508C209.017 16.508 209.017 16.508 209.017 16.508C209.017 16.508 209.018 16.508 209.018 16.508C209.018 16.508 209.019 16.508 209.019 16.508C209.019 16.508 209.019 16.508 209.02 16.508C209.02 16.508 209.02 16.508 209.02 16.508C209.021 16.508 209.021 16.508 209.021 16.508C209.021 16.508 209.022 16.508 209.022 16.508C209.022 16.508 209.022 16.508 209.023 16.508C209.023 16.508 209.023 16.508 209.023 16.508C209.024 16.508 209.024 16.508 209.024 16.508C209.024 16.508 209.025 16.508 209.025 16.508C209.025 16.508 209.025 16.508 209.026 16.508C209.026 16.508 209.026 16.508 209.026 16.508C209.027 16.508 209.027 16.508 209.027 16.508C209.028 16.508 209.028 16.508 209.028 16.508C209.028 16.508 209.029 16.508 209.029 16.508C209.029 16.508 209.029 16.508 209.03 16.508C209.03 16.508 209.03 16.508 209.03 16.508C209.031 16.508 209.031 16.508 209.031 16.508C209.031 16.508 209.032 16.508 209.032 16.508C209.032 16.508 209.032 16.508 209.033 16.508C209.033 16.508 209.033 16.508 209.033 16.508C209.034 16.508 209.034 16.508 209.034 16.508C209.034 16.508 209.035 16.508 209.035 16.508C209.035 16.508 209.036 16.508 209.036 16.508C209.036 16.508 209.036 16.508 209.037 16.508C209.037 16.508 209.037 16.508 209.037 16.508C209.038 16.508 209.038 16.508 209.038 16.508C209.038 16.508 209.039 16.508 209.039 16.508C209.039 16.508 209.039 16.508 209.04 16.508C209.04 16.508 209.04 16.508 209.04 16.508C209.041 16.508 209.041 16.508 209.041 16.508C209.041 16.508 209.042 16.508 209.042 16.508C209.042 16.508 209.042 16.508 209.043 16.508C209.043 16.508 209.043 16.508 209.044 16.508C209.044 16.508 209.044 16.508 209.044 16.508C209.045 16.508 209.045 16.508 209.045 16.508C209.045 16.508 209.046 16.508 209.046 16.508C209.046 16.508 209.046 16.508 209.047 16.508C209.047 16.508 209.047 16.508 209.047 16.508C209.048 16.508 209.048 16.508 209.048 16.508C209.048 16.508 209.049 16.508 209.049 16.508C209.049 16.508 209.049 16.508 209.05 16.508C209.05 16.508 209.05 16.508 209.05 16.508C209.051 16.508 209.051 16.508 209.051 16.508C209.052 16.508 209.052 16.508 209.052 16.508C209.052 16.508 209.053 16.508 209.053 16.508C209.053 16.508 209.053 16.508 209.054 16.508C209.054 16.508 209.054 16.508 209.054 16.508C209.055 16.508 209.055 16.508 209.055 16.508C209.055 16.508 209.056 16.508 209.056 16.508C209.056 16.508 209.056 16.508 209.057 16.508C209.057 16.508 209.057 16.508 209.057 16.508C209.058 16.508 209.058 16.508 209.058 16.508C209.058 16.508 209.059 16.508 209.059 16.508C209.059 16.508 209.059 16.508 209.06 16.508C209.06 16.508 209.06 16.508 209.061 16.508C209.061 16.508 209.061 16.508 209.061 16.508C209.062 16.508 209.062 16.508 209.062 16.508C209.062 16.508 209.063 16.508 209.063 16.508C209.063 16.508 209.063 16.508 209.064 16.508C209.064 16.508 209.064 16.508 209.064 16.508C209.065 16.508 209.065 16.508 209.065 16.508C209.065 16.508 209.066 16.508 209.066 16.508C209.066 16.508 209.066 16.508 209.067 16.508C209.067 16.508 209.067 16.508 209.067 16.508C209.068 16.508 209.068 16.508 209.068 16.508C209.069 16.508 209.069 16.508 209.069 16.508C209.069 16.508 209.07 16.508 209.07 16.508C209.07 16.508 209.07 16.508 209.071 16.508C209.071 16.508 209.071 16.508 209.071 16.508C209.072 16.508 209.072 16.508 209.072 16.508C209.072 16.508 209.073 16.508 209.073 16.508C209.073 16.508 209.073 16.508 209.074 16.508C209.074 16.508 209.074 16.508 209.074 16.508C209.075 16.508 209.075 16.508 209.075 16.508C209.075 16.508 209.076 16.508 209.076 16.508C209.076 16.508 209.077 16.508 209.077 16.508C209.077 16.508 209.077 16.508 209.078 16.508C209.078 16.508 209.078 16.508 209.078 16.508C209.079 16.508 209.079 16.508 209.079 16.508C209.079 16.508 209.08 16.508 209.08 16.508C209.08 16.508 209.08 16.508 209.081 16.508C209.081 16.508 209.081 16.508 209.081 16.508C209.082 16.508 209.082 16.508 209.082 16.508C209.082 16.508 209.083 16.508 209.083 16.508C209.083 16.508 209.083 16.508 209.084 16.508C209.084 16.508 209.084 16.508 209.085 16.508C209.085 16.508 209.085 16.508 209.085 16.508C209.086 16.508 209.086 16.508 209.086 16.508C209.086 16.508 209.087 16.508 209.087 16.508C209.087 16.508 209.087 16.508 209.088 16.508C209.088 16.508 209.088 16.508 209.088 16.508C209.089 16.508 209.089 16.508 209.089 16.508C209.089 16.508 209.09 16.508 209.09 16.508C209.09 16.508 209.09 16.508 209.091 16.508C209.091 16.508 209.091 16.508 209.091 16.508C209.092 16.508 209.092 16.508 209.092 16.508C209.092 16.508 209.093 16.508 209.093 16.508C209.093 16.508 209.094 16.508 209.094 16.508C209.094 16.508 209.094 16.508 209.095 16.508C209.095 16.508 209.095 16.508 209.095 16.508C209.096 16.508 209.096 16.508 209.096 16.508C209.096 16.508 209.097 16.508 209.097 16.508C209.097 16.508 209.097 16.508 209.098 16.508C209.098 16.508 209.098 16.508 209.098 16.508C209.099 16.508 209.099 16.508 209.099 16.508C209.099 16.508 209.1 16.508 209.1 16.508C209.1 16.508 209.1 16.508 209.101 16.508C209.101 16.508 209.101 16.508 209.102 16.508C209.102 16.508 209.102 16.508 209.102 16.508C209.103 16.508 209.103 16.508 209.103 16.508C209.103 16.508 209.104 16.508 209.104 16.508C209.104 16.508 209.104 16.508 209.105 16.508C209.105 16.508 209.105 16.508 209.105 16.508C209.106 16.508 209.106 16.508 209.106 16.508C209.106 16.508 209.107 16.508 209.107 16.508C209.107 16.508 209.107 16.508 209.108 16.508C209.108 16.508 209.108 16.508 209.108 16.508C209.109 16.508 209.109 16.508 209.109 16.508C209.11 16.508 209.11 16.508 209.11 16.508C209.11 16.508 209.111 16.508 209.111 16.508C209.111 16.508 209.111 16.508 209.112 16.508C209.112 16.508 209.112 16.508 209.112 16.508C209.113 16.508 209.113 16.508 209.113 16.508C209.113 16.508 209.114 16.508 209.114 16.508C209.114 16.508 209.114 16.508 209.115 16.508C209.115 16.508 209.115 16.508 209.115 16.508C209.116 16.508 209.116 16.508 209.116 16.508C209.116 16.508 209.117 16.508 209.117 16.508C209.117 16.508 209.118 16.508 209.118 16.508C209.118 16.508 209.118 16.508 209.119 16.508C209.119 16.508 209.119 16.508 209.119 16.508C209.12 16.508 209.12 16.508 209.12 16.508C209.12 16.508 209.121 16.508 209.121 16.508C209.121 16.508 209.121 16.508 209.122 16.508C209.122 16.508 209.122 16.508 209.122 16.508C209.123 16.508 209.123 16.508 209.123 16.508C209.123 16.508 209.124 16.508 209.124 16.508C209.124 16.508 209.124 16.508 209.125 16.508C209.125 16.508 209.125 16.508 209.125 16.508C209.126 16.508 209.126 16.508 209.126 16.508C209.127 16.508 209.127 16.508 209.127 16.508C209.127 16.508 209.128 16.508 209.128 16.508C209.128 16.508 209.128 16.508 209.129 16.508C209.129 16.508 209.129 16.508 209.129 16.508C209.13 16.508 209.13 16.508 209.13 16.508C209.13 16.508 209.131 16.508 209.131 16.508C209.131 16.508 209.131 16.508 209.132 16.508C209.132 16.508 209.132 16.508 209.132 16.508C209.133 16.508 209.133 16.508 209.133 16.508C209.133 16.508 209.134 16.508 209.134 16.508C209.134 16.508 209.135 16.508 209.135 16.508C209.135 16.508 209.135 16.508 209.136 16.508C209.136 16.508 209.136 16.508 209.136 16.508C209.137 16.508 209.137 16.508 209.137 16.508C209.137 16.508 209.138 16.508 209.138 16.508C209.138 16.508 209.138 16.508 209.139 16.508C209.139 16.508 209.139 16.508 209.139 16.508C209.14 16.508 209.14 16.508 209.14 16.508C209.14 16.508 209.141 16.508 209.141 16.508C209.141 16.508 209.141 16.508 209.142 16.508C209.142 16.508 209.142 16.508 209.143 16.508C209.143 16.508 209.143 16.508 209.143 16.508C209.144 16.508 209.144 16.508 209.144 16.508C209.144 16.508 209.145 16.508 209.145 16.508C209.145 16.508 209.145 16.508 209.146 16.508C209.146 16.508 209.146 16.508 209.146 16.508C209.147 16.508 209.147 16.508 209.147 16.508C209.147 16.508 209.148 16.508 209.148 16.508C209.148 16.508 209.148 16.508 209.149 16.508C209.149 16.508 209.149 16.508 209.149 16.508C209.15 16.508 209.15 16.508 209.15 16.508C209.151 16.508 209.151 16.508 209.151 16.508C209.151 16.508 209.152 16.508 209.152 16.508C209.152 16.508 209.152 16.508 209.153 16.508C209.153 16.508 209.153 16.508 209.153 16.508C209.154 16.508 209.154 16.508 209.154 16.508C209.154 16.508 209.155 16.508 209.155 16.508C209.155 16.508 209.155 16.508 209.156 16.508C209.156 16.508 209.156 16.508 209.156 16.508C209.157 16.508 209.157 16.508 209.157 16.508C209.157 16.508 209.158 16.508 209.158 16.508C209.158 16.508 209.158 16.508 209.159 16.508C209.159 16.508 209.159 16.508 209.16 16.508C209.16 16.508 209.16 16.508 209.16 16.508C209.161 16.508 209.161 16.508 209.161 16.508C209.161 16.508 209.162 16.508 209.162 16.508C209.162 16.508 209.162 16.508 209.163 16.508C209.163 16.508 209.163 16.508 209.163 16.508C209.164 16.508 209.164 16.508 209.164 16.508C209.164 16.508 209.165 16.508 209.165 16.508C209.165 16.508 209.165 16.508 209.166 16.508C209.166 16.508 209.166 16.508 209.166 16.508C209.167 16.508 209.167 16.508 209.167 16.508C209.168 16.508 209.168 16.508 209.168 16.508C209.168 16.508 209.169 16.508 209.169 16.508C209.169 16.508 209.169 16.508 209.17 16.508C209.17 16.508 209.17 16.508 209.17 16.508C209.171 16.508 209.171 16.508 209.171 16.508C209.171 16.508 209.172 16.508 209.172 16.508C209.172 16.508 209.172 16.508 209.173 16.508C209.173 16.508 209.173 16.508 209.173 16.508C209.174 16.508 209.174 16.508 209.174 16.508C209.174 16.508 209.175 16.508 209.175 16.508C209.175 16.508 209.176 16.508 209.176 16.508C209.176 16.508 209.176 16.508 209.177 16.508C209.177 16.508 209.177 16.508 209.177 16.508C209.178 16.508 209.178 16.508 209.178 16.508C209.178 16.508 209.179 16.508 209.179 16.508C209.179 16.508 209.179 16.508 209.18 16.508C209.18 16.508 209.18 16.508 209.18 16.508C209.181 16.508 209.181 16.508 209.181 16.508C209.181 16.508 209.182 16.508 209.182 16.508C209.182 16.508 209.182 16.508 209.183 16.508C209.183 16.508 209.183 16.508 209.184 16.508C209.184 16.508 209.184 16.508 209.184 16.508C209.185 16.508 209.185 16.508 209.185 16.508C209.185 16.508 209.186 16.508 209.186 16.508C209.186 16.508 209.186 16.508 209.187 16.508C209.187 16.508 209.187 16.508 209.187 16.508C209.188 16.508 209.188 16.508 209.188 16.508C209.188 16.508 209.189 16.508 209.189 16.508C209.189 16.508 209.189 16.508 209.19 16.508C209.19 16.508 209.19 16.508 209.19 16.508C209.191 16.508 209.191 16.508 209.191 16.508C209.191 16.508 209.192 16.508 209.192 16.508C209.192 16.508 209.193 16.508 209.193 16.508C209.193 16.508 209.193 16.508 209.194 16.508C209.194 16.508 209.194 16.508 209.194 16.508C209.195 16.508 209.195 16.508 209.195 16.508C209.195 16.508 209.196 16.508 209.196 16.508C209.196 16.508 209.196 16.508 209.197 16.508C209.197 16.508 209.197 16.508 209.197 16.508C209.198 16.508 209.198 16.508 209.198 16.508C209.198 16.508 209.199 16.508 209.199 16.508C209.199 16.508 209.199 16.508 209.2 16.508C209.2 16.508 209.2 16.508 209.201 16.508C209.201 16.508 209.201 16.508 209.201 16.508C209.202 16.508 209.202 16.508 209.202 16.508C209.202 16.508 209.203 16.508 209.203 16.508C209.203 16.508 209.203 16.508 209.204 16.508C209.204 16.508 209.204 16.508 209.204 16.508C209.205 16.508 209.205 16.508 209.205 16.508C209.205 16.508 209.206 16.508 209.206 16.508C209.206 16.508 209.206 16.508 209.207 16.508C209.207 16.508 209.207 16.508 209.207 16.508C209.208 16.508 209.208 16.508 209.208 16.508C209.209 16.508 209.209 16.508 209.209 16.508C209.209 16.508 209.21 16.508 209.21 16.508C209.21 16.508 209.21 16.508 209.211 16.508C209.211 16.508 209.211 16.508 209.211 16.508C209.212 16.508 209.212 16.508 209.212 16.508C209.212 16.508 209.213 16.508 209.213 16.508C209.213 16.508 209.213 16.508 209.214 16.508C209.214 16.508 209.214 16.508 209.214 16.508C209.215 16.508 209.215 16.508 209.215 16.508C209.215 16.508 209.216 16.508 209.216 16.508C209.216 16.508 209.217 16.508 209.217 16.508C209.217 16.508 209.217 16.508 209.218 16.508C209.218 16.508 209.218 16.508 209.218 16.508C209.219 16.508 209.219 16.508 209.219 16.508C209.219 16.508 209.22 16.508 209.22 16.508C209.22 16.508 209.22 16.508 209.221 16.508C209.221 16.508 209.221 16.508 209.221 16.508C209.222 16.508 209.222 16.508 209.222 16.508C209.222 16.508 209.223 16.508 209.223 16.508C209.223 16.508 209.223 16.508 209.224 16.508C209.224 16.508 209.224 16.508 209.224 16.508C209.225 16.508 209.225 16.508 209.225 16.508C209.226 16.508 209.226 16.508 209.226 16.508C209.226 16.508 209.227 16.508 209.227 16.508C209.227 16.508 209.227 16.508 209.228 16.508C209.228 16.508 209.228 16.508 209.228 16.508C209.229 16.508 209.229 16.508 209.229 16.508C209.229 16.508 209.23 16.508 209.23 16.508C209.23 16.508 209.23 16.508 209.231 16.508C209.231 16.508 209.231 16.508 209.231 16.508C209.232 16.508 209.232 16.508 209.232 16.508C209.232 16.508 209.233 16.508 209.233 16.508C209.233 16.508 209.234 16.508 209.234 16.508C209.234 16.508 209.234 16.508 209.235 16.508C209.235 16.508 209.235 16.508 209.235 16.508C209.236 16.508 209.236 16.508 209.236 16.508C209.236 16.508 209.237 16.508 209.237 16.508C209.237 16.508 209.237 16.508 209.238 16.508C209.238 16.508 209.238 16.508 209.238 16.508C209.239 16.508 209.239 16.508 209.239 16.508C209.239 16.508 209.24 16.508 209.24 16.508C209.24 16.508 209.24 16.508 209.241 16.508C209.241 16.508 209.241 16.508 209.242 16.508C209.242 16.508 209.242 16.508 209.242 16.508C209.243 16.508 209.243 16.508 209.243 16.508C209.243 16.508 209.244 16.508 209.244 16.508C209.244 16.508 209.244 16.508 209.245 16.508C209.245 16.508 209.245 16.508 209.245 16.508C209.246 16.508 209.246 16.508 209.246 16.508C209.246 16.508 209.247 16.508 209.247 16.508C209.247 16.508 209.247 16.508 209.248 16.508C209.248 16.508 209.248 16.508 209.248 16.508C209.249 16.508 209.249 16.508 209.249 16.508C209.25 16.508 209.25 16.508 209.25 16.508C209.25 16.508 209.251 16.508 209.251 16.508C209.251 16.508 209.251 16.508 209.252 16.508C209.252 16.508 209.252 16.508 209.252 16.508C209.253 16.508 209.253 16.508 209.253 16.508C209.253 16.508 209.254 16.508 209.254 16.508C209.254 16.508 209.254 16.508 209.255 16.508C209.255 16.508 209.255 16.508 209.255 16.508C209.256 16.508 209.256 16.508 209.256 16.508C209.256 16.508 209.257 16.508 209.257 16.508C209.257 16.508 209.257 16.508 209.258 16.508C209.258 16.508 209.258 16.508 209.259 16.508C209.259 16.508 209.259 16.508 209.259 16.508C209.26 16.508 209.26 16.508 209.26 16.508C209.26 16.508 209.261 16.508 209.261 16.508C209.261 16.508 209.261 16.508 209.262 16.508C209.262 16.508 209.262 16.508 209.262 16.508C209.263 16.508 209.263 16.508 209.263 16.508C209.263 16.508 209.264 16.508 209.264 16.508C209.264 16.508 209.264 16.508 209.265 16.508C209.265 16.508 209.265 16.508 209.265 16.508C209.266 16.508 209.266 16.508 209.266 16.508C209.267 16.508 209.267 16.508 209.267 16.508C209.267 16.508 209.268 16.508 209.268 16.508C209.268 16.508 209.268 16.508 209.269 16.508C209.269 16.508 209.269 16.508 209.269 16.508C209.27 16.508 209.27 16.508 209.27 16.508C209.27 16.508 209.271 16.508 209.271 16.508C209.271 16.508 209.271 16.508 209.272 16.508C209.272 16.508 209.272 16.508 209.272 16.508C209.273 16.508 209.273 16.508 209.273 16.508C209.273 16.508 209.274 16.508 209.274 16.508C209.274 16.508 209.275 16.508 209.275 16.508C209.275 16.508 209.275 16.508 209.276 16.508C209.276 16.508 209.276 16.508 209.276 16.508C209.277 16.508 209.277 16.508 209.277 16.508C209.277 16.508 209.278 16.508 209.278 16.508C209.278 16.508 209.278 16.508 209.279 16.508C209.279 16.508 209.279 16.508 209.279 16.508C209.28 16.508 209.28 16.508 209.28 16.508C209.28 16.508 209.281 16.508 209.281 16.508C209.281 16.508 209.281 16.508 209.282 16.508C209.282 16.508 209.282 16.508 209.283 16.508C209.283 16.508 209.283 16.508 209.283 16.508C209.284 16.508 209.284 16.508 209.284 16.508C209.284 16.508 209.285 16.508 209.285 16.508C209.285 16.508 209.285 16.508 209.286 16.508C209.286 16.508 209.286 16.508 209.286 16.508C209.287 16.508 209.287 16.508 209.287 16.508C209.287 16.508 209.288 16.508 209.288 16.508C209.288 16.508 209.288 16.508 209.289 16.508C209.289 16.508 209.289 16.508 209.289 16.508C209.29 16.508 209.29 16.508 209.29 16.508C209.29 16.508 209.291 16.508 209.291 16.508C209.291 16.508 209.292 16.508 209.292 16.508C209.292 16.508 209.292 16.508 209.293 16.508C209.293 16.508 209.293 16.508 209.293 16.508C209.294 16.508 209.294 16.508 209.294 16.508C209.294 16.508 209.295 16.508 209.295 16.508C209.295 16.508 209.295 16.508 209.296 16.508C209.296 16.508 209.296 16.508 209.296 16.508C209.297 16.508 209.297 16.508 209.297 16.508C209.297 16.508 209.298 16.508 209.298 16.508C209.298 16.508 209.298 16.508 209.299 16.508C209.299 16.508 209.299 16.508 209.3 16.508C209.3 16.508 209.3 16.508 209.3 16.508C209.301 16.508 209.301 16.508 209.301 16.508C209.301 16.508 209.302 16.508 209.302 16.508C209.302 16.508 209.302 16.508 209.303 16.508C209.303 16.508 209.303 16.508 209.303 16.508C209.304 16.508 209.304 16.508 209.304 16.508C209.304 16.508 209.305 16.508 209.305 16.508C209.305 16.508 209.305 16.508 209.306 16.508C209.306 16.508 209.306 16.508 209.306 16.508C209.307 16.508 209.307 16.508 209.307 16.508C209.308 16.508 209.308 16.508 209.308 16.508C209.308 16.508 209.309 16.508 209.309 16.508C209.309 16.508 209.309 16.508 209.31 16.508C209.31 16.508 209.31 16.508 209.31 16.508C209.311 16.508 209.311 16.508 209.311 16.508C209.311 16.508 209.312 16.508 209.312 16.508C209.312 16.508 209.312 16.508 209.313 16.508C209.313 16.508 209.313 16.508 209.313 16.508C209.314 16.508 209.314 16.508 209.314 16.508C209.314 16.508 209.315 16.508 209.315 16.508C209.315 16.508 209.316 16.508 209.316 16.508C209.316 16.508 209.316 16.508 209.317 16.508C209.317 16.508 209.317 16.508 209.317 16.508C209.318 16.508 209.318 16.508 209.318 16.508C209.318 16.508 209.319 16.508 209.319 16.508C209.319 16.508 209.319 16.508 209.32 16.508C209.32 16.508 209.32 16.508 209.32 16.508C209.321 16.508 209.321 16.508 209.321 16.508V14.508ZM208.925 14.508C206.781 14.508 204.768 15.2612 202.903 16.6954L204.123 18.2806C205.69 17.0748 207.285 16.508 208.925 16.508V14.508ZM202.916 16.6855C201.066 18.0615 199.564 19.8775 198.402 22.1081L200.176 23.0319C201.214 21.0385 202.528 19.4665 204.11 18.2905L202.916 16.6855ZM198.399 22.1152C197.272 24.3219 196.705 26.6555 196.705 29.104H198.705C198.705 26.9765 199.195 24.9541 200.18 23.0248L198.399 22.1152ZM196.705 29.104V43.162H198.705V29.104H196.705ZM197.705 44.162H204.173V42.162H197.705V44.162ZM204.173 44.162C204.279 44.162 204.335 44.174 204.355 44.1797C204.372 44.1846 204.346 44.1799 204.307 44.1456C204.288 44.129 204.27 44.1095 204.256 44.0885C204.242 44.0676 204.233 44.0496 204.229 44.0377C204.22 44.0154 204.229 44.0248 204.229 44.086H206.229C206.229 43.5866 206.08 43.04 205.624 42.6404C205.193 42.2632 204.649 42.162 204.173 42.162V44.162ZM204.229 44.086C204.229 44.2024 204.177 44.5465 203.999 45.2143L205.931 45.7297C206.105 45.0775 206.229 44.4976 206.229 44.086H204.229ZM203.995 45.2295L203.863 45.7575L205.803 46.2425L205.935 45.7145L203.995 45.2295ZM241.218 46.198L242.116 46.6384L242.311 46.2414L242.148 45.8301L241.218 46.198ZM229.206 15.838L230.136 15.4701L229.886 14.838H229.206V15.838ZM224.586 13.528L225.552 13.7857L225.555 13.7781L225.556 13.7705L224.586 13.528ZM224.718 13V12H223.937L223.748 12.7575L224.718 13ZM237.588 13L238.525 12.6489L238.281 12H237.588V13ZM237.39 15.178L237.507 16.1712L238.021 16.1107L238.268 15.6569L237.39 15.178ZM232.902 15.706L232.785 14.7128L231.508 14.8631L231.969 16.064L232.902 15.706ZM243 42.04L242.067 42.398L242.989 44.8033L243.931 42.4057L243 42.04ZM253.296 15.838L254.227 16.2037L254.764 14.838H253.296V15.838ZM248.676 13.528L249.642 13.7857L249.645 13.7781L249.646 13.7705L248.676 13.528ZM248.808 13V12H248.027L247.838 12.7575L248.808 13ZM261.48 13L262.417 12.6489L262.173 12H261.48V13ZM261.282 15.178L261.399 16.1712L261.913 16.1107L262.16 15.6569L261.282 15.178ZM256.794 15.706L256.677 14.7128L256.092 14.7817L255.869 15.3269L256.794 15.706ZM245.112 44.218L246.036 44.6016L246.038 44.5971L245.112 44.218ZM241.086 51.676L240.27 51.098L240.263 51.1076L240.257 51.1174L241.086 51.676ZM235.74 56.758L235.236 55.8942L235.226 55.9005L235.215 55.907L235.74 56.758ZM228.084 58.936L227.216 59.4321L227.523 59.9702L228.142 59.9343L228.084 58.936ZM227.688 57.946L226.696 58.07L226.703 58.13L226.718 58.1885L227.688 57.946ZM227.688 56.23L227.552 55.2393L226.847 55.3362L226.708 56.0339L227.688 56.23ZM236.202 52.6L235.542 51.8492L235.534 51.856L236.202 52.6ZM242.148 45.8301L230.136 15.4701L228.276 16.2059L240.288 46.5659L242.148 45.8301ZM229.206 14.838H225.378V16.838H229.206V14.838ZM225.378 14.838C225.272 14.838 225.216 14.826 225.196 14.8202C225.18 14.8154 225.206 14.8201 225.245 14.8544C225.264 14.871 225.281 14.8905 225.295 14.9115C225.31 14.9324 225.318 14.9504 225.323 14.9623C225.331 14.9846 225.322 14.9752 225.322 14.914H223.322C223.322 15.4134 223.471 15.96 223.928 16.3596C224.359 16.7368 224.902 16.838 225.378 16.838V14.838ZM225.322 14.914C225.322 14.7976 225.374 14.4535 225.552 13.7857L223.62 13.2703C223.446 13.9225 223.322 14.5024 223.322 14.914H225.322ZM225.556 13.7705L225.688 13.2425L223.748 12.7575L223.616 13.2855L225.556 13.7705ZM224.718 14H237.588V12H224.718V14ZM236.652 13.3511C236.758 13.6346 236.786 13.8191 236.786 13.924H238.786C238.786 13.5009 238.682 13.0694 238.525 12.6489L236.652 13.3511ZM236.786 13.924C236.786 14.0399 236.737 14.2867 236.512 14.6991L238.268 15.6569C238.571 15.1013 238.786 14.5121 238.786 13.924H236.786ZM237.273 14.1848L232.785 14.7128L233.019 16.6991L237.507 16.1712L237.273 14.1848ZM231.969 16.064L242.067 42.398L243.934 41.682L233.836 15.348L231.969 16.064ZM243.931 42.4057L254.227 16.2037L252.366 15.4723L242.07 41.6743L243.931 42.4057ZM253.296 14.838H249.468V16.838H253.296V14.838ZM249.468 14.838C249.362 14.838 249.306 14.826 249.286 14.8202C249.27 14.8154 249.296 14.8201 249.335 14.8544C249.354 14.871 249.371 14.8905 249.385 14.9115C249.4 14.9324 249.408 14.9504 249.413 14.9623C249.421 14.9846 249.412 14.9752 249.412 14.914H247.412C247.412 15.4134 247.561 15.96 248.018 16.3596C248.449 16.7368 248.992 16.838 249.468 16.838V14.838ZM249.412 14.914C249.412 14.7976 249.464 14.4535 249.642 13.7857L247.71 13.2703C247.536 13.9225 247.412 14.5024 247.412 14.914H249.412ZM249.646 13.7705L249.778 13.2425L247.838 12.7575L247.706 13.2855L249.646 13.7705ZM248.808 14H261.48V12H248.808V14ZM260.544 13.3511C260.65 13.6346 260.678 13.8191 260.678 13.924H262.678C262.678 13.5009 262.574 13.0694 262.417 12.6489L260.544 13.3511ZM260.678 13.924C260.678 14.0399 260.629 14.2867 260.404 14.6991L262.16 15.6569C262.463 15.1013 262.678 14.5121 262.678 13.924H260.678ZM261.165 14.1848L256.677 14.7128L256.911 16.6991L261.399 16.1712L261.165 14.1848ZM255.869 15.3269L244.187 43.8389L246.038 44.5971L257.72 16.0851L255.869 15.3269ZM244.189 43.8344C243.024 46.6387 241.716 49.0571 240.27 51.098L241.902 52.254C243.449 50.0709 244.825 47.5173 246.036 44.6016L244.189 43.8344ZM240.257 51.1174C238.884 53.1565 237.21 54.7429 235.236 55.8942L236.244 57.6218C238.494 56.3091 240.385 54.5075 241.916 52.2346L240.257 51.1174ZM235.215 55.907C233.319 57.0767 230.938 57.7689 228.026 57.9377L228.142 59.9343C231.303 59.7511 234.025 58.9913 236.265 57.609L235.215 55.907ZM228.952 58.4399C228.823 58.2131 228.725 57.9687 228.658 57.7035L226.718 58.1885C226.828 58.6273 226.994 59.0429 227.216 59.4321L228.952 58.4399ZM228.681 57.822C228.64 57.4981 228.622 57.2332 228.622 57.022H226.622C226.622 57.3388 226.648 57.6899 226.696 58.07L228.681 57.822ZM228.622 57.022C228.622 56.7574 228.642 56.5627 228.669 56.4261L226.708 56.0339C226.647 56.3373 226.622 56.6706 226.622 57.022H228.622ZM227.824 57.2207C231.497 56.7157 234.535 55.4411 236.87 53.344L235.534 51.856C233.557 53.6309 230.919 54.7763 227.552 55.2393L227.824 57.2207ZM236.863 53.3507C239.149 51.339 240.907 49.1026 242.116 46.6384L240.32 45.7576C239.241 47.9574 237.656 49.989 235.542 51.8493L236.863 53.3507Z" fill="white"/>
</g>
<defs>
<filter id="filter0_f" x="0.100003" y="0.206082" width="262.778" height="59.9641" filterUnits="userSpaceOnUse" color-interpolation-filters="sRGB">
<feFlood flood-opacity="0" result="BackgroundImageFix"/>
<feBlend mode="normal" in="SourceGraphic" in2="BackgroundImageFix" result="shape"/>
<feGaussianBlur stdDeviation="0.1" result="effect1_foregroundBlur"/>
</filter>
</defs>
</svg>
